<?xml version="1.0" encoding="utf-8"?>
<svg viewBox="-300.426 -230.669 1209.807 708.746" xmlns="http://www.w3.org/2000/svg">
  <path d="M 893.196 56.081 C 851.569 -107.605 707.735 -225.763 538.906 -230.502 C 449.65 -233.008 355.729 -203.406 287.347 -99.818 C 165.108 85.357 294.859 213.319 385.319 274.124 C 429.021 303.559 468.4 338.952 502.314 379.279 C 563.416 451.787 680.964 541.888 820.957 400.713 C 922.424 298.39 920.924 165.113 893.196 56.081 Z" fill="#f2f2f2"/>
  <path d="M189.01629,505.9341c-1.12158-1.66114-2.22412-3.36621-3.27734-5.06836l1.70117-1.05274c1.03906,1.68067,2.12695,3.36329,3.2334,5.002Z" transform="matrix(1, 0, 0, 1, -255.721851, -326.815007)" fill="#3f3d56"/>
  <path d="M -100.027 177.211 C -101.439 174.394 -102.75 171.484 -103.927 168.561 L -102.518 167.974 C -101.358 170.857 -100.063 173.729 -98.67 176.508 Z M -107.107 159.609 C -108.041 156.597 -108.862 153.506 -109.549 150.424 L -108.063 150.08 C -107.387 153.122 -106.576 156.172 -105.657 159.145 Z M -111.23 141.062 C -111.662 137.937 -111.971 134.754 -112.151 131.595 L -110.631 131.505 C -110.455 134.622 -110.148 137.764 -109.723 140.846 Z M -110.787 122.116 L -112.309 122.079 C -112.235 118.916 -112.033 115.721 -111.708 112.588 L -110.195 112.75 C -110.516 115.843 -110.715 118.994 -110.787 122.116 Z M -108.849 103.465 L -110.345 103.175 C -109.765 100.071 -109.049 96.954 -108.22 93.91 L -106.753 94.323 C -107.572 97.327 -108.276 100.402 -108.849 103.465 Z M -103.92 85.391 L -105.347 84.856 C -104.271 81.891 -103.058 78.934 -101.744 76.068 L -100.363 76.722 C -101.662 79.55 -102.858 82.466 -103.92 85.391 Z M 104.536 80.606 C 103.346 77.738 102.022 74.881 100.6 72.117 L 101.95 71.399 C 103.389 74.201 104.732 77.097 105.937 80.006 Z M -96.116 68.382 L -97.437 67.615 C -95.896 64.873 -94.222 62.16 -92.461 59.554 L -91.208 60.429 C -92.942 63.002 -94.595 65.677 -96.116 68.382 Z M 95.988 63.984 C 94.348 61.351 92.581 58.755 90.734 56.267 L 91.949 55.333 C 93.821 57.856 95.613 60.488 97.274 63.155 Z M -85.671 52.914 L -86.852 51.935 C -84.888 49.486 -82.802 47.089 -80.647 44.81 L -79.551 45.884 C -81.675 48.131 -83.735 50.496 -85.671 52.914 Z M 84.876 49.011 C 82.834 46.685 80.672 44.415 78.452 42.267 L 79.5 41.146 C 81.75 43.322 83.942 45.622 86.011 47.98 Z M -72.886 39.388 L -73.893 38.229 C -71.564 36.138 -69.12 34.118 -66.63 32.229 L -65.721 33.47 C -68.176 35.334 -70.586 37.325 -72.886 39.388 Z M 71.506 36.081 C 69.119 34.124 66.622 32.243 64.086 30.494 L 64.941 29.212 C 67.511 30.986 70.041 32.892 72.461 34.875 Z M -58.104 28.169 L -58.911 26.856 C -56.275 25.18 -53.54 23.596 -50.782 22.149 L -50.086 23.525 C -52.806 24.953 -55.504 26.517 -58.104 28.169 Z M 56.239 25.545 C 53.565 24.01 50.799 22.572 48.018 21.272 L 48.652 19.865 C 51.473 21.184 54.277 22.641 56.987 24.198 Z M -41.72 19.571 L -42.304 18.14 C -39.436 16.93 -36.483 15.826 -33.528 14.861 L -33.063 16.335 C -35.977 17.286 -38.89 18.375 -41.72 19.571 Z M 39.476 17.703 C 36.595 16.639 33.633 15.686 30.674 14.87 L 31.072 13.375 C 34.073 14.204 37.076 15.17 39.995 16.248 Z M -24.165 13.838 L -24.51 12.33 C -21.486 11.619 -18.394 11.025 -15.317 10.567 L -15.096 12.099 C -18.131 12.55 -21.183 13.136 -24.165 13.838 Z M 21.67 12.787 C 18.662 12.223 15.588 11.78 12.53 11.468 L 12.682 9.928 C 15.78 10.243 18.895 10.692 21.946 11.264 Z M -5.916 11.126 L -6.013 9.58 C -2.916 9.382 0.24 9.311 3.342 9.369 L 3.316 10.917 C 0.251 10.858 -2.86 10.929 -5.916 11.126 Z" fill="#3f3d56" style="" transform="matrix(0.707107, 0.707107, -0.707107, 0.707107, 65.02591, 29.573981)"/>
  <path d="M 196.002 41.286 L 195.109 41.183 C 195.302 39.232 195.562 37.265 195.883 35.337 L 196.766 35.508 C 196.45 37.414 196.192 39.358 196.002 41.286 Z M 197.914 29.806 L 197.044 29.566 C 197.493 27.665 198.013 25.759 198.587 23.901 L 199.439 24.207 C 198.871 26.043 198.358 27.927 197.914 29.806 Z M 341.108 19.585 C 340.437 17.788 339.697 15.994 338.907 14.255 L 339.714 13.829 C 340.512 15.589 341.262 17.404 341.941 19.224 Z M 201.337 18.736 L 200.508 18.364 C 201.206 16.554 201.975 14.747 202.793 12.993 L 203.595 13.429 C 202.787 15.162 202.027 16.947 201.337 18.736 Z M 336.356 9.108 C 335.454 7.434 334.483 5.773 333.471 4.171 L 334.213 3.625 C 335.237 5.246 336.22 6.927 337.133 8.621 Z M 206.201 8.31 L 205.431 7.813 C 206.361 6.132 207.362 4.462 208.404 2.852 L 209.141 3.407 C 208.11 4.998 207.121 6.648 206.201 8.31 Z M 330.265 -0.53 C 329.148 -2.051 327.968 -3.546 326.757 -4.974 L 327.419 -5.628 C 328.645 -4.183 329.84 -2.671 330.969 -1.132 Z M 212.396 -1.256 L 211.699 -1.866 C 212.844 -3.391 214.054 -4.888 215.296 -6.319 L 215.952 -5.656 C 214.724 -4.243 213.528 -2.762 212.396 -1.256 Z M 322.964 -9.137 C 321.659 -10.47 320.294 -11.769 318.906 -12.998 L 319.475 -13.746 C 320.88 -12.504 322.261 -11.189 323.581 -9.84 Z M 219.788 -9.772 L 219.178 -10.483 C 220.511 -11.815 221.906 -13.112 223.324 -14.338 L 223.885 -13.583 C 222.484 -12.37 221.105 -11.089 219.788 -9.772 Z M 314.603 -16.537 C 313.136 -17.657 311.613 -18.732 310.077 -19.736 L 310.541 -20.564 C 312.096 -19.55 313.637 -18.461 315.121 -17.328 Z M 228.223 -17.068 L 227.713 -17.864 C 229.208 -18.978 230.759 -20.048 232.324 -21.043 L 232.78 -20.209 C 231.234 -19.225 229.7 -18.168 228.223 -17.068 Z M 305.35 -22.575 C 303.749 -23.458 302.099 -24.288 300.445 -25.042 L 300.795 -25.935 C 302.469 -25.171 304.138 -24.331 305.758 -23.439 Z M 237.533 -22.989 L 237.134 -23.856 C 238.761 -24.727 240.437 -25.546 242.117 -26.289 L 242.458 -25.393 C 240.797 -24.659 239.14 -23.85 237.533 -22.989 Z M 295.389 -27.121 C 293.691 -27.745 291.947 -28.31 290.207 -28.801 L 290.434 -29.738 C 292.195 -29.241 293.96 -28.669 295.679 -28.038 Z M 247.528 -27.407 L 247.249 -28.328 C 248.974 -28.938 250.744 -29.488 252.508 -29.964 L 252.726 -29.024 C 250.982 -28.554 249.233 -28.011 247.528 -27.407 Z M 284.927 -30.072 C 283.162 -30.426 281.362 -30.714 279.577 -30.93 L 279.677 -31.893 C 281.483 -31.674 283.305 -31.382 285.091 -31.025 Z M 258.017 -30.231 L 257.863 -31.186 C 259.652 -31.522 261.476 -31.792 263.285 -31.99 L 263.376 -31.026 C 261.588 -30.831 259.785 -30.564 258.017 -30.231 Z M 274.183 -31.374 C 272.385 -31.453 270.557 -31.464 268.773 -31.406 L 268.746 -32.375 C 270.552 -32.433 272.4 -32.423 274.22 -32.343 Z" fill="#3f3d56" style=""/>
  <ellipse cx="155.07017" cy="433.15038" rx="33.31243" ry="2.49843" fill="#6c63ff" transform="matrix(1, 0, 0, 1, -222.945301, -231.706913)"/>
  <ellipse cx="82.23" cy="201.308" rx="33.312" ry="2.498" fill="#6c63ff"/>
  <rect x="648.23265" y="323.3363" width="141.66201" height="1.99979" transform="matrix(0.707107, -0.707107, 0.707107, 0.707107, -274.453312, 276.635655)" fill="#3f3d56"/>
  <rect x="438.22607" y="291.40511" width="168.22803" height="2" fill="#3f3d56" transform="matrix(1, 0, 0, 1, -222.945301, -231.706913)"/>
  <rect x="327.42698" y="446.90051" width="133.06486" height="1.99979" transform="matrix(0.707107, -0.707107, 0.707107, 0.707107, -457.047218, 82.943361)" fill="#3f3d56"/>
  <rect x="172.55908" y="412.16292" width="112.42969" height="2" fill="#3f3d56" transform="matrix(1, 0, 0, 1, -222.945301, -231.706913)"/>
  <rect x="40.6194" y="575.49866" width="157.99935" height="1.99979" transform="matrix(0.707107, -0.707107, 0.707107, 0.707107, -628.332285, -73.379014)" fill="#3f3d56"/>
  <path d="M187.84686,526.76027A18.48926,18.48926,0,1,1,206.33563,508.271,18.51013,18.51013,0,0,1,187.84686,526.76027Zm0-34.97852A16.48926,16.48926,0,1,0,204.33563,508.271,16.50815,16.50815,0,0,0,187.84686,491.78175Z" transform="matrix(1, 0, 0, 1, -255.721851, -326.815007)" fill="#3f3d56"/>
  <path d="M 79.532 199.945 C 65.299 199.945 56.404 184.538 63.52 172.211 C 70.637 159.885 88.428 159.885 95.544 172.211 C 97.167 175.022 98.021 178.21 98.021 181.456 C 98.01 191.663 89.739 199.934 79.532 199.945 Z M 79.532 164.967 C 66.839 164.967 58.905 178.708 65.252 189.701 C 71.599 200.693 87.466 200.693 93.812 189.701 C 95.26 187.194 96.021 184.35 96.021 181.456 C 96.011 172.354 88.635 164.977 79.532 164.967 Z" fill="#3f3d56"/>
  <path d="M453.51336,406.00246a18.489,18.489,0,1,1,18.48926-18.48926A18.51,18.51,0,0,1,453.51336,406.00246Zm0-34.978a16.489,16.489,0,1,0,16.48926,16.48877A16.50763,16.50763,0,0,0,453.51336,371.02443Z" transform="matrix(1, 0, 0, 1, -255.721851, -326.815007)" fill="#3f3d56"/>
  <path d="M656.71893,406.00246a18.489,18.489,0,1,1,18.48926-18.48926A18.50992,18.50992,0,0,1,656.71893,406.00246Zm0-34.978a16.489,16.489,0,1,0,16.48926,16.48877A16.5072,16.5072,0,0,0,656.71893,371.02443Z" transform="matrix(1, 0, 0, 1, -255.721851, -326.815007)" fill="#3f3d56"/>
  <path d="M781.6408,280.24806a18.489,18.489,0,1,1,18.48926-18.48926A18.51012,18.51012,0,0,1,781.6408,280.24806Zm0-34.978a16.489,16.489,0,1,0,16.48926,16.48876A16.508,16.508,0,0,0,781.6408,245.27Z" transform="matrix(1, 0, 0, 1, -255.721851, -326.815007)" fill="#3f3d56"/>
  <path d="M51.2658,663.34132a18.48926,18.48926,0,1,1,18.48877-18.48925A18.51012,18.51012,0,0,1,51.2658,663.34132Zm0-34.97851a16.48926,16.48926,0,1,0,16.48877,16.48926A16.50814,16.50814,0,0,0,51.2658,628.36281Z" transform="matrix(1, 0, 0, 1, -255.721851, -326.815007)" fill="#3f3d56"/>
  <rect x="621.17676" y="707.34063" width="453.53514" height="2.44319" fill="#2f2e41" transform="matrix(1, 0, 0, 1, -222.945301, -231.706913)"/>
  <path d="M1028.20946,167.53991c-7.05081,20.87569-17.86231,39.89658-39.89659,39.89658s-38.65507-17.89732-39.89658-39.89658c-1.5864-28.11069,17.354-40.013,39.89658-39.89659C1014.94326,127.78087,1036.57709,142.76553,1028.20946,167.53991Z" fill="#2f2e41" transform="matrix(1, 0, 0, 1, -255.721851, -326.815007)"/>
  <rect x="915.63974" y="69.28209" width="78.74327" height="99.74147" fill="#2f2e41" transform="matrix(1, 0, 0, 1, -222.945301, -231.706913)"/>
  <path d="M1029.47172,238.698h6.69761s16.37193,20.837,8.93014,49.11579-1.48835,33.488-1.48835,33.488,9.68812,30.62354-.73038,76.76262,9.66052,58.67788,9.66052,58.67788l-18.60446-37.20893-10.4185-98.23157Z" fill="#575a89" transform="matrix(1, 0, 0, 1, -255.721851, -326.815007)"/>
  <path d="M1029.47172,241.146h6.69761s16.37193,20.837,8.93014,49.11579-1.48835,33.488-1.48835,33.488,9.68812,30.62354-.73038,76.76262,9.66052,58.67788,9.66052,58.67788l-18.60446-37.20893-10.4185-98.23157Z" opacity="0.1" transform="matrix(1, 0, 0, 1, -255.721851, -326.815007)"/>
  <path d="M1006.0301,202.60535s-5.95343,23.81371-2.97672,23.81371,13.39522,12.651,13.39522,12.651l6.69761,24.55789-5.20925,17.86029-17.86029-3.72089-22.32536-24.5579-6.69761-6.6976-5.95343-21.58118s7.44179-8.93015,2.23254-16.37193S1006.0301,202.60535,1006.0301,202.60535Z" fill="#fbbebe" transform="matrix(1, 0, 0, 1, -255.721851, -326.815007)"/>
  <path d="M1006.0301,202.60535s-5.95343,23.81371-2.97672,23.81371,13.39522,12.651,13.39522,12.651l6.69761,24.55789-5.20925,17.86029-17.86029-3.72089-22.32536-24.5579-6.69761-6.6976-5.95343-21.58118s7.44179-8.93015,2.23254-16.37193S1006.0301,202.60535,1006.0301,202.60535Z" opacity="0.1" transform="matrix(1, 0, 0, 1, -255.721851, -326.815007)"/>
  <path d="M825.93888,268.83724,809.567,242.04681s-17.67265-39.10242-30.32369-24.963,19.161,42.82332,19.161,42.82332l16.37193,21.58118Z" fill="#fbbebe" transform="matrix(1, 0, 0, 1, -255.721851, -326.815007)"/>
  <path d="M1043.239,501.76515,1031.33217,588.834s1.48836,6.69761-13.39521,31.25551-55.06922,78.13875-55.06922,78.13875l-11.90686-22.32536s14.13939-70.697,38.69729-85.58054l-2.97672-107.16172Z" fill="#fbbebe" transform="matrix(1, 0, 0, 1, -255.721851, -326.815007)"/>
  <path d="M1043.239,501.76515,1031.33217,588.834s1.48836,6.69761-13.39521,31.25551-55.06922,78.13875-55.06922,78.13875l-11.90686-22.32536s14.13939-70.697,38.69729-85.58054l-2.97672-107.16172Z" opacity="0.1" transform="matrix(1, 0, 0, 1, -255.721851, -326.815007)"/>
  <path d="M950.96088,666.9728l16.37193,31.2555s-13.39521,37.95311-8.186,41.674,11.90685,37.20893-2.23254,33.488-25.30207-18.60447-25.30207-20.837,8.186-33.488,3.72089-40.92983-7.44179-9.67432-7.44179-9.67432l-11.16267,18.60447-3.7209-2.23254,18.60447-31.2555s2.23253-5.95343,11.16268-9.67432Z" fill="#2f2e41" transform="matrix(1, 0, 0, 1, -255.721851, -326.815007)"/>
  <path d="M950.96088,666.9728l16.37193,31.2555s-13.39521,37.95311-8.186,41.674,11.90685,37.20893-2.23254,33.488-25.30207-18.60447-25.30207-20.837,8.186-33.488,3.72089-40.92983-7.44179-9.67432-7.44179-9.67432l-11.16267,18.60447-3.7209-2.23254,18.60447-31.2555s2.23253-5.95343,11.16268-9.67432Z" opacity="0.1" transform="matrix(1, 0, 0, 1, -255.721851, -326.815007)"/>
  <path d="M986.8551,489.41187s5.77978,82.30607-6.87125,103.88725V700.46084l-17.11611,2.23253s-34.56547-56.734-21.91444-112.54736-13.062-106.98533-13.062-106.98533Z" fill="#fbbebe" transform="matrix(1, 0, 0, 1, -255.721851, -326.815007)"/>
  <circle cx="949.81193" cy="94.47413" r="31.2555" fill="#fbbebe" transform="matrix(1, 0, 0, 1, -222.945301, -231.706913)"/>
  <path d="M1014.21606,271.814l-31.2555-39.44147-17.86029-11.90686L957.65849,230.14l-20.837,5.95343s-13.39522,2.97671-27.53461,19.34864-39.44147,26.04625-39.44147,26.04625l-20.837-3.72089s-24.55789-11.16268-24.55789-14.1394-21.58118,20.09283-16.37193,29.023,16.37193,20.09282,22.32536,26.04625,8.186,23.06954,44.65071,17.86029,49.86-23.06954,49.86-23.06954,6.69761,34.23222,26.04625,40.92982,82.60383,11.16268,82.60383,11.16268l13.39521-44.65071s14.88357-19.34865-5.20925-47.62743c0,0-.38574-15.81551-2.54584-26.33966-.84019-4.09344-1.94881-7.38636-3.40759-8.63674-5.20925-4.46507-32.74386-11.90686-32.74386-11.90686s4.46508,14.88358,6.69761,15.62775S1017.19278,268.09307,1014.21606,271.814Z" fill="#575a89" transform="matrix(1, 0, 0, 1, -255.721851, -326.815007)"/>
  <path d="M914.124,493.95127c37.47673-2.60462,59.2961,3.53485,69.03,8.21572a24.67563,24.67563,0,0,1,5.07534,3.08091c.71439.60278,1.05668,1.07162,1.05668,1.35441,0,2.23253,51.34832,6.69761,69.95279,2.23253s-12.651-100.46411-20.837-108.65007-3.773-38.1466-3.773-38.1466-16.31978-3.5274-20.78486-2.039-27.5346-2.23253-35.72057-6.6976-18.60446-1.48836-25.30207-2.97672c-2.99161-.66233-4.50232.45394-5.254,1.89765a12.86762,12.86762,0,0,1-5.09006,5.14225c-15.7989,9.10134-28.47973,72.02908-38.0276,106.81943C894.03122,502.13724,914.124,493.95127,914.124,493.95127Z" fill="#2f2e41" transform="matrix(1, 0, 0, 1, -255.721851, -326.815007)"/>
  <path d="M982.96056,693.76323l2.97672,16.37193S1001.565,732.46052,997.1,751.065c0,0,3.7209,24.55789,17.11611,31.2555s2.23254,22.32536-10.4185,21.58118-24.55789.74418-26.04625-2.97671-10.4185-40.18565-10.4185-40.18565l-2.44319,42.67115-7.44178.74418,2.44318-49.36876s-5.95342-11.16268,2.23254-29.76714l-2.066-28.5575S980.728,701.205,982.96056,693.76323Z" fill="#2f2e41" transform="matrix(1, 0, 0, 1, -255.721851, -326.815007)"/>
  <path d="M983.15406,502.167a24.67563,24.67563,0,0,1,5.07534,3.08091c.39426-7.0325,2.67149-49.56232-.05959-48.87765Z" opacity="0.1" transform="matrix(1, 0, 0, 1, -255.721851, -326.815007)"/>
  <path d="M969.64947,146.5417s-.34615-1.92689-13.88381,3.14973S934.1131,192.23132,940.88193,214.23c2.72781,8.86539.50878,15.25736-3.113,19.72968-13.59109,16.78288-8.24084,41.9903,11.55562,50.62064q.83817.3654,1.71061.72242l8.461,5.07663s-10.786-14.19212-5.38828-32.34645a93.07919,93.07919,0,0,0,1.67965-47.65026c-.61926-2.65858-1.3227-5.39906-2.12175-8.19575C946.897,178.496,950.18907,181.232,973.88,157.54105c0,0,13.53766,10.15325,25.38312,15.22988s21.99871,10.15325,13.53767,27.07533-28.76754,32.152-15.22988,54.15066,15.22988,13.53767,13.53767,21.99871h0l-1.69221,8.461,10.15325-10.15325-6.76883,13.53767s21.9987,0,28.76754-16.92209l3.38441,3.38442s13.53767-23.69091-11.84545-45.68962c0,0-8.461-5.07663,3.38441-21.99871s2.748-53.30456-12.48187-60.07339S969.64947,146.5417,969.64947,146.5417Z" fill="#2f2e41" transform="matrix(1, 0, 0, 1, -255.721851, -326.815007)"/>
  <circle cx="955.53633" cy="25.18586" r="15.74865" fill="#2f2e41" transform="matrix(1, 0, 0, 1, -222.945301, -231.706913)"/>
  <path d="M969.41449,111.89466a15.74931,15.74931,0,0,1,14.17379-15.66912c-.5181-.05146-1.04318-.07953-1.57487-.07953a15.74865,15.74865,0,0,0,0,31.49731c.53169,0,1.05677-.02807,1.57487-.07953A15.74936,15.74936,0,0,1,969.41449,111.89466Z" transform="matrix(1, 0, 0, 1, -255.721851, -326.815007)" fill="#2f2e41"/>
  <circle cx="480.32023" cy="661.02324" r="18.02529" fill="#f1f1f1" transform="matrix(1, 0, 0, 1, -222.945301, -231.706913)"/>
  <circle cx="592.46685" cy="584.77806" r="18.02529" fill="#f1f1f1" transform="matrix(1, 0, 0, 1, -222.945301, -231.706913)"/>
  <circle cx="453.77896" cy="513.7842" r="18.02529" fill="#f1f1f1" transform="matrix(1, 0, 0, 1, -222.945301, -231.706913)"/>
  <rect x="-217.628" y="91.37" width="3.042" height="114.339" fill="#3f3d56" style=""/>
  <path d="M -186.513 105.941 C -186.319 145.922 -215.879 178.464 -215.879 178.464 C -215.879 178.464 -245.753 146.183 -245.947 106.201 C -246.141 66.22 -216.58 33.678 -216.58 33.678 C -216.58 33.678 -186.706 65.959 -186.513 105.941 Z" fill="#6c63ff" style=""/>
  <rect x="-238.348" y="158.372" width="235.423" height="47.471" fill="#f2f2f2" style=""/>
  <polygon points="-245.865 163.574 -220.239 112.526 -15.567 112.526 3.567 163.574 -245.865 163.574" fill="#3f3d56" style=""/>
  <rect x="-181.97" y="115.778" width="94.989" height="29.913" fill="#f2f2f2" style=""/>
  <polygon points="-175.819 91.392 -190.854 121.305 -78.096 121.305 -86.98 91.392 -175.819 91.392" fill="#3f3d56" style=""/>
  <rect x="-173.598" y="167.801" width="75.001" height="38.042" fill="#ccc" style=""/>
  <rect x="-229.123" y="169.102" width="39.978" height="36.742" fill="#ccc" style=""/>
  <rect x="-85.614" y="171.378" width="20.672" height="34.466" fill="#3f3d56" style=""/>
  <rect y="205.681" width="307.925" height="0.65" fill="#3f3d56" x="-300.426" style=""/>
  <rect x="-253.928" y="130.266" width="2.007" height="75.451" fill="#3f3d56" style=""/>
  <path d="M -233.395 139.881 C -233.267 166.265 -252.774 187.739 -252.774 187.739 C -252.774 187.739 -272.487 166.437 -272.615 140.053 C -272.743 113.67 -253.236 92.196 -253.236 92.196 C -253.236 92.196 -233.523 113.498 -233.395 139.881 Z" fill="#6c63ff" style=""/>
  <path d="M -233.395 139.881 C -233.267 166.265 -252.774 187.739 -252.774 187.739 C -252.774 187.739 -272.487 166.437 -272.615 140.053 C -272.743 113.67 -253.236 92.196 -253.236 92.196 C -253.236 92.196 -233.523 113.498 -233.395 139.881 Z" opacity="0.1" style=""/>
  <rect x="-280.023" y="130.266" width="2.007" height="75.451" fill="#3f3d56" style=""/>
  <path d="M -259.49 139.881 C -259.363 166.265 -278.869 187.739 -278.869 187.739 C -278.869 187.739 -298.583 166.437 -298.711 140.053 C -298.838 113.67 -279.332 92.196 -279.332 92.196 C -279.332 92.196 -259.618 113.498 -259.49 139.881 Z" fill="#6c63ff" style=""/>
  <rect x="-42.561" y="173.329" width="10.08" height="8.942" fill="#3f3d56" style=""/>
  <rect x="-29.064" y="173.329" width="10.08" height="8.942" fill="#3f3d56" style=""/>
  <rect x="-42.561" y="185.522" width="10.08" height="9.267" fill="#3f3d56" style=""/>
  <rect x="-29.064" y="185.522" width="10.08" height="9.267" fill="#3f3d56" style=""/>
  <rect x="-173.257" y="123.963" width="7.889" height="6.998" fill="#3f3d56" style=""/>
  <rect x="-162.694" y="123.963" width="7.889" height="6.998" fill="#3f3d56" style=""/>
  <rect x="-173.257" y="133.505" width="7.889" height="7.252" fill="#3f3d56" style=""/>
  <rect x="-162.694" y="133.505" width="7.889" height="7.252" fill="#3f3d56" style=""/>
  <rect x="-114.145" y="123.963" width="7.889" height="6.998" fill="#3f3d56" style=""/>
  <rect x="-103.582" y="123.963" width="7.889" height="6.998" fill="#3f3d56" style=""/>
  <rect x="-114.145" y="133.505" width="7.889" height="7.252" fill="#3f3d56" style=""/>
  <rect x="-103.582" y="133.505" width="7.889" height="7.252" fill="#3f3d56" style=""/>
  <rect x="-143.53" y="123.963" width="7.889" height="6.998" fill="#3f3d56" style=""/>
  <rect x="-132.967" y="123.963" width="7.889" height="6.998" fill="#3f3d56" style=""/>
  <rect x="-143.53" y="133.505" width="7.889" height="7.252" fill="#3f3d56" style=""/>
  <rect x="-132.967" y="133.505" width="7.889" height="7.252" fill="#3f3d56" style=""/>
  <rect x="-81.001" y="174.869" width="4.967" height="4.406" fill="#f2f2f2" style=""/>
  <rect x="-74.351" y="174.869" width="4.967" height="4.406" fill="#f2f2f2" style=""/>
  <rect x="-81.001" y="180.877" width="4.967" height="4.566" fill="#f2f2f2" style=""/>
  <rect x="-74.351" y="180.877" width="4.967" height="4.566" fill="#f2f2f2" style=""/>
  <circle cx="691.564" cy="532.605" r="4" fill="#f2f2f2" transform="matrix(0.341688, 0, 0, 0.325147, -303.974522, 17.874253)" style=""/>
  <rect x="-173.598" y="171.865" width="75.171" height="0.65" fill="#f2f2f2" style=""/>
  <rect x="-173.598" y="174.792" width="75.171" height="0.65" fill="#f2f2f2" style=""/>
  <rect x="-173.598" y="177.718" width="75.171" height="0.65" fill="#f2f2f2" style=""/>
  <rect x="-173.598" y="180.644" width="75.171" height="0.65" fill="#f2f2f2" style=""/>
  <rect x="-173.598" y="183.571" width="75.171" height="0.65" fill="#f2f2f2" style=""/>
  <rect x="-173.598" y="186.497" width="75.171" height="0.65" fill="#f2f2f2" style=""/>
  <rect x="-173.598" y="189.423" width="75.171" height="0.65" fill="#f2f2f2" style=""/>
  <rect x="-173.598" y="192.35" width="75.171" height="0.65" fill="#f2f2f2" style=""/>
  <rect x="-173.598" y="195.276" width="75.171" height="0.65" fill="#f2f2f2" style=""/>
  <rect x="-173.598" y="198.202" width="75.171" height="0.65" fill="#f2f2f2" style=""/>
  <rect x="-173.598" y="201.129" width="75.171" height="0.65" fill="#f2f2f2" style=""/>
  <rect x="-229.123" y="171.865" width="39.978" height="0.65" fill="#f2f2f2" style=""/>
  <rect x="-229.123" y="174.792" width="39.978" height="0.65" fill="#f2f2f2" style=""/>
  <rect x="-229.123" y="177.718" width="39.978" height="0.65" fill="#f2f2f2" style=""/>
  <rect x="-229.123" y="180.644" width="39.978" height="0.65" fill="#f2f2f2" style=""/>
  <rect x="-229.123" y="183.571" width="39.978" height="0.65" fill="#f2f2f2" style=""/>
  <rect x="-229.123" y="186.497" width="39.978" height="0.65" fill="#f2f2f2" style=""/>
  <rect x="-229.123" y="189.423" width="39.978" height="0.65" fill="#f2f2f2" style=""/>
  <rect x="-229.123" y="192.35" width="39.978" height="0.65" fill="#f2f2f2" style=""/>
  <rect x="-229.123" y="195.276" width="39.978" height="0.65" fill="#f2f2f2" style=""/>
  <rect x="-229.123" y="198.202" width="39.978" height="0.65" fill="#f2f2f2" style=""/>
  <rect x="-229.123" y="201.129" width="39.978" height="0.65" fill="#f2f2f2" style=""/>
  <path d="M 450.1 -9.264 C 450.1 29.955 429.602 43.649 404.317 43.649 C 379.031 43.649 358.534 29.955 358.534 -9.264 C 358.534 -48.483 404.317 -98.376 404.317 -98.376 C 404.317 -98.376 450.1 -48.483 450.1 -9.264 Z" fill="#f2f2f2" style=""/>
  <polygon points="402.649 37.65 403.118 4.827 422.632 -35.78 403.191 -0.322 403.402 -15.081 416.851 -44.459 403.458 -18.986 403.458 -18.986 403.837 -45.53 418.239 -68.919 403.897 -49.704 404.133 -98.376 402.645 -33.943 402.767 -36.601 388.125 -62.094 402.532 -31.499 401.168 -1.854 401.128 -2.641 384.248 -29.468 401.076 0.139 400.906 3.847 400.875 3.902 400.89 4.207 397.428 79.418 402.053 79.418 402.607 40.57 419.395 11.036 402.649 37.65" fill="#3f3d56" style=""/>
  <polygon points="357.593 39.731 355.023 34.858 379.018 11.464 440.719 11.464 440.719 18.287 418.438 45.58 392.729 51.428 357.593 39.731" fill="#3f3d56" style=""/>
  <polygon points="451.34 25.192 451.34 9.942 443.262 9.942 443.262 14.751 440.719 11.464 420.152 34.858 416.724 38.756 412.439 58.252 420.152 79.696 459.572 79.696 459.572 35.832 451.34 25.192" fill="#ccc" style=""/>
  <rect x="355.023" y="34.858" width="65.129" height="44.838" fill="#f2f2f2" style=""/>
  <rect x="397.443" y="48.992" width="13.712" height="13.646" fill="#3f3d56" style=""/>
  <rect x="379.875" y="48.504" width="11.997" height="31.192" fill="#ccc" style=""/>
  <polygon points="366.163 53.378 366.163 48.504 361.021 48.504 361.021 53.378 365.735 53.378 366.163 53.378" fill="#3f3d56" style=""/>
  <polygon points="365.735 57.277 361.021 57.277 361.021 62.151 366.163 62.151 366.163 57.277 365.735 57.277" fill="#3f3d56" style=""/>
  <rect x="369.591" y="48.504" width="5.142" height="4.874" fill="#3f3d56" style=""/>
  <rect x="369.591" y="57.277" width="5.142" height="4.874" fill="#3f3d56" style=""/>
  <polygon points="438.577 53.865 438.577 48.992 433.435 48.992 433.435 53.865 438.148 53.865 438.577 53.865" fill="#3f3d56" style=""/>
  <polygon points="438.148 57.764 433.435 57.764 433.435 62.638 438.577 62.638 438.577 57.764 438.148 57.764" fill="#3f3d56" style=""/>
  <rect x="442.004" y="48.992" width="5.142" height="4.874" fill="#3f3d56" style=""/>
  <rect x="442.004" y="57.764" width="5.142" height="4.874" fill="#3f3d56" style=""/>
  <rect x="348.33" y="50.014" width="0.645" height="28.974" fill="#3f3d56" style=""/>
  <path d="M 354.926 53.706 C 354.967 63.838 348.701 72.083 348.701 72.083 C 348.701 72.083 342.367 63.904 342.326 53.772 C 342.285 43.641 348.552 35.394 348.552 35.394 C 348.552 35.394 354.885 43.575 354.926 53.706 Z" fill="#6c63ff" style=""/>
  <path d="M 354.926 53.706 C 354.967 63.838 348.701 72.083 348.701 72.083 C 348.701 72.083 342.367 63.904 342.326 53.772 C 342.285 43.641 348.552 35.394 348.552 35.394 C 348.552 35.394 354.885 43.575 354.926 53.706 Z" opacity="0.1" style=""/>
  <rect x="339.947" y="50.014" width="0.645" height="28.974" fill="#3f3d56" style=""/>
  <path d="M 346.543 53.706 C 346.584 63.838 340.317 72.083 340.317 72.083 C 340.317 72.083 333.984 63.904 333.943 53.772 C 333.902 43.641 340.169 35.394 340.169 35.394 C 340.169 35.394 346.502 43.575 346.543 53.706 Z" fill="#6c63ff" style=""/>
  <path d="M 451.064 -10.832 C 451.064 39.361 423.474 56.887 389.44 56.887 C 355.405 56.887 327.816 39.361 327.816 -10.832 C 327.816 -61.027 389.44 -124.881 389.44 -124.881 C 389.44 -124.881 451.064 -61.027 451.064 -10.832 Z" fill="#f2f2f2" style=""/>
  <polygon points="387.194 49.208 387.826 7.2 414.092 -44.768 387.924 0.611 388.208 -18.277 406.311 -55.876 388.283 -23.276 388.283 -23.276 388.794 -57.247 408.179 -87.181 388.874 -62.59 389.193 -124.881 387.19 -42.418 387.354 -45.82 367.646 -78.445 387.038 -39.29 385.203 -1.349 385.147 -2.356 362.427 -36.69 385.078 1.201 384.849 5.947 384.808 6.018 384.826 6.408 380.167 102.665 386.392 102.665 387.139 52.946 409.735 15.148 387.194 49.208" fill="#3f3d56" style=""/>
  <polygon points="326.55 51.873 323.09 45.635 355.387 15.696 438.437 15.696 438.437 24.427 408.447 59.358 373.843 66.843 326.55 51.873" fill="#3f3d56" style=""/>
  <polygon points="452.734 33.266 452.734 13.748 441.86 13.748 441.86 19.902 438.437 15.696 410.755 45.635 406.14 50.625 400.372 75.575 410.755 103.02 463.813 103.02 463.813 46.882 452.734 33.266" fill="#ccc" style=""/>
  <rect x="323.09" y="45.635" width="87.664" height="57.386" fill="#f2f2f2" style=""/>
  <rect x="380.187" y="63.724" width="18.455" height="17.465" fill="#3f3d56" style=""/>
  <rect x="356.541" y="63.101" width="16.148" height="39.92" fill="#ccc" style=""/>
  <polygon points="338.085 69.337 338.085 63.101 331.164 63.101 331.164 69.337 337.509 69.337 338.085 69.337" fill="#3f3d56" style=""/>
  <polygon points="337.509 74.328 331.164 74.328 331.164 80.566 338.085 80.566 338.085 74.328 337.509 74.328" fill="#3f3d56" style=""/>
  <rect x="342.699" y="63.101" width="6.921" height="6.238" fill="#3f3d56" style=""/>
  <rect x="342.699" y="74.328" width="6.921" height="6.238" fill="#3f3d56" style=""/>
  <polygon points="435.553 69.962 435.553 63.724 428.633 63.724 428.633 69.962 434.977 69.962 435.553 69.962" fill="#3f3d56" style=""/>
  <polygon points="434.977 74.952 428.633 74.952 428.633 81.189 435.553 81.189 435.553 74.952 434.977 74.952" fill="#3f3d56" style=""/>
  <rect x="440.168" y="63.724" width="6.921" height="6.238" fill="#3f3d56" style=""/>
  <rect x="440.168" y="74.952" width="6.921" height="6.238" fill="#3f3d56" style=""/>
  <rect x="314.082" y="65.033" width="0.868" height="37.081" fill="#3f3d56" style=""/>
  <path d="M 322.96 69.758 C 323.016 82.724 314.58 93.278 314.58 93.278 C 314.58 93.278 306.056 82.809 306 69.842 C 305.945 56.876 314.38 46.322 314.38 46.322 C 314.38 46.322 322.905 56.792 322.96 69.758 Z" fill="#6c63ff" style=""/>
  <path d="M 322.96 69.758 C 323.016 82.724 314.58 93.278 314.58 93.278 C 314.58 93.278 306.056 82.809 306 69.842 C 305.945 56.876 314.38 46.322 314.38 46.322 C 314.38 46.322 322.905 56.792 322.96 69.758 Z" opacity="0.1" style=""/>
  <rect x="302.797" y="65.033" width="0.868" height="37.081" fill="#3f3d56" style=""/>
  <path d="M 311.675 69.758 C 311.731 82.724 303.297 93.278 303.297 93.278 C 303.297 93.278 294.771 82.809 294.717 69.842 C 294.661 56.876 303.096 46.322 303.096 46.322 C 303.096 46.322 311.621 56.792 311.675 69.758 Z" fill="#6c63ff" style=""/>
  <ellipse cx="198.887" cy="79.101" rx="33.312" ry="2.498" fill="#6c63ff"/>
</svg>