<?xml version="1.0" encoding="utf-8"?>
<svg viewBox="183.46 -82.136 1097.106 715.697" xmlns="http://www.w3.org/2000/svg">
  <ellipse cx="709.529" cy="614.681" rx="348.83" ry="18.88" fill="#94dcbf" opacity="0.1"/>
  <path d="M 195.319 347.839 C 212.679 422.039 249.429 486.179 307.499 517.289 C 428.209 581.909 700.419 548.579 903.569 510.289 C 1006.228 491.01 1099.41 437.741 1168.109 359.059 Z" fill="#94dcbf" opacity="0.1"/>
  <path d="M 1260.669 -1.421 L 1149.199 -1.421 C 1141.782 -1.66 1137.406 -9.839 1141.321 -16.143 C 1143.022 -18.881 1145.978 -20.587 1149.199 -20.691 L 1168.469 -20.691 C 1161.056 -20.691 1156.423 -28.716 1160.13 -35.136 C 1161.85 -38.116 1165.029 -39.951 1168.469 -39.951 L 1154.709 -39.951 C 1147.292 -40.19 1142.916 -48.369 1146.831 -54.673 C 1148.532 -57.411 1151.488 -59.117 1154.709 -59.221 L 1212.889 -59.221 C 1199.979 -65.221 1184.889 -69.491 1167.499 -71.731 C 1008.859 -92.101 952.219 -78.631 932.239 -64.731 C 907.589 -47.631 880.089 -35.051 850.699 -28.991 C 752.819 -8.801 569.769 15.489 403.859 -36.771 C 321.399 -62.771 260.119 -18.851 223.379 54.509 L 1280.019 54.509 C 1278.639 33.189 1274.509 13.509 1266.929 -3.731 C 1265.186 -2.238 1262.965 -1.419 1260.669 -1.421 Z" fill="#94dcbf" opacity="0.1"/>
  <path d="M 185.859 192.959 C 181.578 236.114 183.031 279.645 190.179 322.419 L 1168.859 358.209 C 1196.107 326.873 1218.982 291.989 1236.859 254.509 Z M 572.939 285.289 L 553.669 285.289 C 561.086 285.05 565.981 292.93 562.479 299.472 C 560.749 302.705 557.334 304.677 553.669 304.559 L 442.199 304.559 C 434.782 304.32 430.406 296.141 434.321 289.837 C 436.022 287.099 438.978 285.393 442.199 285.289 L 461.469 285.289 C 454.056 285.289 449.423 277.264 453.13 270.844 C 454.85 267.864 458.029 266.029 461.469 266.029 L 447.709 266.029 C 440.292 265.79 435.916 257.611 439.831 251.307 C 441.532 248.569 444.488 246.863 447.709 246.759 L 559.179 246.759 C 566.596 246.998 570.973 255.176 567.058 261.48 C 565.357 264.218 562.401 265.925 559.179 266.029 L 572.939 266.029 C 580.353 266.029 584.986 274.054 581.279 280.474 C 579.559 283.453 576.38 285.289 572.939 285.289 Z" fill="#94dcbf" opacity="0.1"/>
  <path d="M 1280.069 55.149 L 211.589 81.149 C 198.589 114.559 190.019 152.289 186.019 191.479 L 1261.349 191.479 C 1268.368 168.48 1273.561 144.964 1276.879 121.149 C 1280.079 98.139 1281.359 75.879 1280.069 55.149 Z M 402.939 140.289 L 383.669 140.289 C 391.086 140.05 395.981 147.93 392.479 154.472 C 390.749 157.705 387.334 159.677 383.669 159.559 L 272.199 159.559 C 264.782 159.32 260.406 151.141 264.321 144.837 C 266.022 142.099 268.978 140.393 272.199 140.289 L 291.469 140.289 C 284.056 140.289 279.423 132.264 283.13 125.844 C 284.85 122.864 288.029 121.029 291.469 121.029 L 277.709 121.029 C 270.292 120.79 265.916 112.611 269.831 106.307 C 271.532 103.569 274.488 101.863 277.709 101.759 L 389.179 101.759 C 396.596 101.998 400.973 110.176 397.058 116.48 C 395.357 119.218 392.401 120.925 389.179 121.029 L 402.939 121.029 C 410.353 121.029 414.986 129.054 411.279 135.474 C 409.559 138.453 406.38 140.289 402.939 140.289 Z" fill="#94dcbf" opacity="0.1"/>
  <path d="M 614.479 3.359 C 614.479 3.359 590.649 1.929 593.479 18.629 C 593.182 20.367 594.038 22.099 595.599 22.919 C 595.599 22.919 595.599 21.679 598.039 22.099 C 598.894 22.247 599.764 22.291 600.629 22.229 C 601.8 22.147 602.913 21.688 603.799 20.919 L 603.799 20.919 C 603.799 20.919 610.499 18.149 613.099 7.199 C 613.099 7.199 615.029 4.809 614.949 4.199 L 610.949 5.919 C 610.949 5.919 612.319 8.819 611.239 11.229 C 611.239 11.229 611.109 6.019 610.339 6.139 C 610.179 6.139 608.249 7.139 608.249 7.139 C 608.249 7.139 610.619 12.199 608.829 15.869 C 608.829 15.869 609.509 9.639 607.509 7.509 L 604.679 9.159 C 604.679 9.159 607.439 14.379 605.569 18.639 C 605.569 18.639 606.049 12.109 604.089 9.559 L 601.519 11.559 C 601.519 11.559 604.119 16.709 602.519 20.239 C 602.519 20.239 602.319 12.629 600.949 12.059 C 599.979 12.881 599.113 13.817 598.369 14.849 C 598.369 14.849 600.139 18.589 599.039 20.559 C 599.039 20.559 598.369 15.489 597.809 15.469 C 597.809 15.469 595.569 18.829 595.339 21.129 C 595.447 18.994 596.113 16.926 597.269 15.129 C 595.979 15.373 594.787 15.988 593.839 16.899 C 593.839 16.899 594.189 14.529 597.839 14.319 C 597.839 14.319 599.689 11.769 600.179 11.619 C 600.179 11.619 596.569 11.309 594.389 12.289 C 594.389 12.289 596.309 10.049 600.839 11.059 L 603.379 8.999 C 603.379 8.999 598.629 8.349 596.609 9.059 C 596.609 9.059 598.929 7.059 604.059 8.529 L 606.819 6.879 C 604.697 6.409 602.521 6.22 600.349 6.319 C 600.349 6.319 602.899 4.949 607.629 6.429 L 609.629 5.549 C 609.629 5.549 606.629 4.969 605.789 4.869 C 604.949 4.769 604.879 4.539 604.879 4.539 C 606.758 4.226 608.686 4.44 610.449 5.159 C 610.449 5.159 614.559 3.629 614.479 3.359 Z" fill="#94dcbf" opacity="0.1"/>
</svg>