<?xml version="1.0" encoding="utf-8"?>
<svg viewBox="-200.774 -265.294 941.675 808.056" xmlns="http://www.w3.org/2000/svg">
  <path d="M 287.655 629.381 C -2.37 629.381 -183.637 310.481 -38.624 55.362 C 106.387 -199.757 468.919 -199.757 613.93 55.362 C 699.191 205.361 674.634 394.824 554.058 517.297 C 483.559 589.299 387.629 629.659 287.655 629.381 Z M 287.655 -132.922 C 81.57 -132.922 -86.091 37.377 -86.091 246.703 C -86.091 456.029 81.57 626.328 287.655 626.328 C 493.738 626.328 661.401 456.029 661.401 246.703 C 661.401 37.377 493.738 -132.922 287.655 -132.922 Z" style="" fill="#e6e6e6" transform="matrix(1, 0, 0, 1, -111.112283, -86.619592)"/>
  <path d="M 336.254 76.068 L -27.584 76.068 C -37.797 76.057 -46.073 67.781 -46.084 57.568 L -46.084 -164.586 C -46.076 -172.363 -39.773 -178.665 -31.996 -178.674 L 340.457 -178.674 C 348.35 -178.665 354.745 -172.269 354.754 -164.377 L 354.754 57.568 C 354.743 67.781 346.467 76.057 336.254 76.068 Z" fill="#fff" transform="matrix(1, 0, 0, 1, -111.112283, -86.619592)"/>
  <path d="M 336.254 76.068 L -27.584 76.068 C -37.797 76.057 -46.073 67.781 -46.084 57.568 L -46.084 -164.586 C -46.076 -172.363 -39.773 -178.665 -31.996 -178.674 L 340.457 -178.674 C 348.35 -178.665 354.745 -172.269 354.754 -164.377 L 354.754 57.568 C 354.743 67.781 346.467 76.057 336.254 76.068 Z M -31.996 -174.674 C -37.565 -174.667 -42.078 -170.154 -42.084 -164.586 L -42.084 57.568 C -42.075 65.573 -35.589 72.059 -27.584 72.068 L 336.254 72.068 C 344.259 72.059 350.745 65.573 350.754 57.568 L 350.754 -164.377 C 350.748 -170.061 346.141 -174.668 340.457 -174.674 Z" fill="#e6e6e6" transform="matrix(1, 0, 0, 1, -111.112283, -86.619592)"/>
  <path d="M 120.027 19.822 L 11.007 19.822 C 5.491 19.814 0.831 15.727 0.102 10.259 C 0.036 9.783 0.004 9.303 0.007 8.822 L 0.007 -111.428 C 0.014 -117.5 4.935 -122.421 11.007 -122.428 L 120.027 -122.428 C 126.1 -122.421 131.02 -117.5 131.027 -111.428 L 131.027 8.822 C 131.02 14.894 126.1 19.815 120.027 19.822 Z M 11.007 -116.428 C 8.247 -116.425 6.01 -114.188 6.007 -111.428 L 6.007 8.822 C 6.005 9.028 6.018 9.233 6.045 9.437 C 6.362 11.938 8.486 13.815 11.007 13.822 L 120.027 13.822 C 122.787 13.819 125.024 11.582 125.027 8.822 L 125.027 -111.428 C 125.024 -114.188 122.787 -116.425 120.027 -116.428 Z" fill="#e6e6e6" transform="matrix(1, 0, 0, 1, -111.112283, -86.619592)"/>
  <path d="M 300.663 -19.278 L 168.663 -19.278 C 162.504 -19.278 158.655 -25.945 161.735 -31.278 C 163.164 -33.753 165.805 -35.278 168.663 -35.278 L 300.663 -35.278 C 306.821 -35.278 310.67 -28.611 307.591 -23.278 C 306.162 -20.803 303.521 -19.278 300.663 -19.278 Z" fill="#e6e6e6" transform="matrix(1, 0, 0, 1, -111.112283, -86.619592)"/>
  <path d="M 240.663 -53.278 L 168.663 -53.278 C 162.504 -53.278 158.655 -59.945 161.735 -65.278 C 163.164 -67.753 165.805 -69.278 168.663 -69.278 L 240.663 -69.278 C 246.821 -69.278 250.67 -62.611 247.591 -57.278 C 246.162 -54.803 243.521 -53.278 240.663 -53.278 Z" fill="#e6e6e6" transform="matrix(1, 0, 0, 1, -111.112283, -86.619592)"/>
  <path d="M 101.464 -54.608 C 101.464 -36.935 85.122 -39.608 64.964 -39.608 C 44.805 -39.608 28.464 -36.935 28.464 -54.608 C 28.464 -72.281 36.446 -103.608 64.964 -103.608 C 94.464 -103.608 101.464 -72.281 101.464 -54.608 Z" fill="#2f2e41" transform="matrix(1, 0, 0, 1, -111.112283, -86.619592)"/>
  <path d="M 102.94 -24.864 C 102.236 -26.896 100.832 -28.612 98.98 -29.704 C 98.622 -29.924 98.248 -30.114 97.86 -30.274 C 91.424 -32.95 84.505 -27.656 85.405 -20.744 C 85.491 -20.082 85.651 -19.431 85.88 -18.804 L 100.42 14.246 L 119.57 14.246 Z" fill="#3f3d56" transform="matrix(1, 0, 0, 1, -111.112283, -86.619592)"/>
  <path d="M 39.49 -23.064 C 34.618 -25.418 28.783 -23.003 27 -17.894 L 13.46 13.956 C 14.153 14.149 14.87 14.247 15.59 14.246 L 32.58 14.246 L 44.06 -11.834 C 45.646 -16.196 43.671 -21.05 39.49 -23.064 Z" fill="#3f3d56" transform="matrix(1, 0, 0, 1, -111.112283, -86.619592)"/>
  <circle cx="64.842" cy="-64.198" r="24.561" fill="#ffb8b8" transform="matrix(1, 0, 0, 1, -111.112283, -86.619592)"/>
  <path d="M 99.41 -29.314 C 99.27 -29.444 99.13 -29.584 98.98 -29.704 C 95.515 -32.828 90.856 -34.279 86.23 -33.674 L 40.97 -27.944 C 32.35 -26.878 26.139 -19.152 26.95 -10.504 C 27.57 -3.524 28.57 5.286 30.17 14.246 L 101.67 14.246 L 104.3 -16.314 C 104.729 -21.165 102.929 -25.948 99.41 -29.314 Z" fill="#3f3d56" transform="matrix(1, 0, 0, 1, -111.112283, -86.619592)"/>
  <path d="M 36.464 -66.608 L 36.464 -66.608 L 46.178 -66.608 L 50.464 -78.608 L 51.321 -66.608 L 55.964 -66.608 L 58.464 -73.608 L 58.964 -66.608 L 93.464 -66.608 L 93.464 -66.608 C 93.464 -80.967 81.823 -92.608 67.464 -92.608 L 62.464 -92.608 C 48.104 -92.608 36.464 -80.967 36.464 -66.608 Z" fill="#2f2e41" transform="matrix(1, 0, 0, 1, -111.112283, -86.619592)"/>
  <path d="M 451.176 57.568 L 451.176 -164.377 C 451.184 -172.269 457.58 -178.665 465.473 -178.674 L 837.926 -178.674 C 845.703 -178.665 852.005 -172.363 852.014 -164.586 L 852.014 57.568 C 852.003 67.781 843.726 76.057 833.514 76.068 L 469.676 76.068 C 459.463 76.057 451.187 67.781 451.176 57.568 Z" fill="#fff" transform="matrix(1, 0, 0, 1, -111.112283, -86.619592)"/>
  <path d="M 451.176 57.568 L 451.176 -164.377 C 451.184 -172.269 457.58 -178.665 465.473 -178.674 L 837.926 -178.674 C 845.703 -178.665 852.005 -172.363 852.014 -164.586 L 852.014 57.568 C 852.003 67.781 843.726 76.057 833.514 76.068 L 469.676 76.068 C 459.463 76.057 451.187 67.781 451.176 57.568 Z M 465.473 -174.674 C 459.788 -174.668 455.182 -170.061 455.176 -164.377 L 455.176 57.568 C 455.185 65.573 461.671 72.059 469.676 72.068 L 833.514 72.068 C 841.518 72.059 848.005 65.573 848.014 57.568 L 848.014 -164.586 C 848.008 -170.154 843.495 -174.667 837.926 -174.674 Z" fill="#e6e6e6" transform="matrix(1, 0, 0, 1, -111.112283, -86.619592)"/>
  <path d="M 674.903 8.822 L 674.903 -111.428 C 674.909 -117.5 679.83 -122.421 685.903 -122.428 L 794.923 -122.428 C 800.995 -122.421 805.916 -117.5 805.923 -111.428 L 805.923 8.822 C 805.926 9.303 805.894 9.783 805.828 10.259 C 805.099 15.727 800.439 19.814 794.923 19.822 L 685.903 19.822 C 679.83 19.815 674.909 14.894 674.903 8.822 Z M 685.903 -116.428 C 683.142 -116.425 680.906 -114.188 680.903 -111.428 L 680.903 8.822 C 680.906 11.582 683.142 13.819 685.903 13.822 L 794.923 13.822 C 797.444 13.815 799.568 11.938 799.884 9.437 C 799.912 9.233 799.925 9.028 799.923 8.822 L 799.923 -111.428 C 799.919 -114.188 797.683 -116.425 794.923 -116.428 Z" fill="#e6e6e6" transform="matrix(1, 0, 0, 1, -111.112283, -86.619592)"/>
  <path d="M 497.267 -27.278 C 497.272 -31.694 500.851 -35.273 505.267 -35.278 L 637.267 -35.278 C 643.425 -35.278 647.274 -28.611 644.195 -23.278 C 642.766 -20.803 640.125 -19.278 637.267 -19.278 L 505.267 -19.278 C 500.851 -19.283 497.272 -22.862 497.267 -27.278 Z" fill="#e6e6e6" transform="matrix(1, 0, 0, 1, -111.112283, -86.619592)"/>
  <path d="M 497.267 -61.278 C 497.272 -65.694 500.851 -69.273 505.267 -69.278 L 577.267 -69.278 C 583.425 -69.278 587.274 -62.611 584.195 -57.278 C 582.766 -54.803 580.125 -53.278 577.267 -53.278 L 505.267 -53.278 C 500.851 -53.283 497.272 -56.862 497.267 -61.278 Z" fill="#e6e6e6" transform="matrix(1, 0, 0, 1, -111.112283, -86.619592)"/>
  <path d="M 713.47 -75.698 C 720.481 -61.914 726.006 -47.698 741.47 -47.698 C 763.025 -47.698 776.496 -71.031 765.719 -89.698 C 760.717 -98.361 751.474 -103.698 741.47 -103.698 C 725.755 -103.895 700.422 -101.353 713.47 -75.698 Z" fill="#2f2e41" transform="matrix(1, 0, 0, 1, -111.112283, -86.619592)"/>
  <circle cx="740.092" cy="-71.714" r="24.561" fill="#a0616a" transform="matrix(1, 0, 0, 1, -111.112283, -86.619592)"/>
  <path d="M 773.625 -26.944 C 772.041 -28.669 770.319 -30.261 768.475 -31.704 C 760.412 -38.023 750.307 -41.155 740.085 -40.504 C 739.675 -40.484 739.265 -40.454 738.855 -40.414 C 726.878 -39.457 715.891 -33.395 708.695 -23.774 C 701.386 -14.005 698.645 -1.559 701.175 10.376 C 701.445 11.626 701.685 12.886 701.915 14.146 L 783.335 14.146 L 784.274 7.846 C 786.178 -4.765 782.262 -17.56 773.625 -26.944 Z" fill="#3f3d56" transform="matrix(1, 0, 0, 1, -111.112283, -86.619592)"/>
  <path d="M 786.095 -20.374 C 784.91 -27.155 779.048 -32.12 772.165 -32.174 C 772.035 -32.174 771.895 -32.164 771.765 -32.164 C 770.654 -32.139 769.55 -31.984 768.475 -31.704 C 760.872 -29.683 756.361 -21.868 758.415 -14.274 L 766.105 14.146 L 791.985 14.146 Z" fill="#3f3d56" transform="matrix(1, 0, 0, 1, -111.112283, -86.619592)"/>
  <path d="M 729.145 -27.824 C 728.169 -29.74 726.77 -31.409 725.055 -32.704 C 723.84 -33.621 722.482 -34.331 721.035 -34.804 C 720.443 -35.006 719.839 -35.167 719.225 -35.284 C 712.314 -36.592 705.482 -32.67 703.125 -26.044 L 689.045 14.146 L 715.765 14.146 L 729.395 -15.414 C 731.236 -19.367 731.144 -23.949 729.145 -27.824 Z" fill="#3f3d56" transform="matrix(1, 0, 0, 1, -111.112283, -86.619592)"/>
  <path d="M 714.029 -85.594 C 719.642 -81.726 726.304 -79.667 733.12 -79.695 C 730.688 -78.009 727.92 -76.87 725.006 -76.357 C 734.069 -74.412 743.436 -74.36 752.52 -76.202 C 754.54 -76.526 756.488 -77.195 758.28 -78.18 C 760.086 -79.189 761.379 -80.917 761.835 -82.935 C 762.439 -86.383 759.752 -89.516 756.959 -91.628 C 748.301 -98.075 737.206 -100.292 726.735 -97.668 C 723.359 -96.795 719.976 -95.32 717.783 -92.609 C 715.59 -89.898 714.941 -85.717 717.03 -82.925 Z" fill="#2f2e41" transform="matrix(1, 0, 0, 1, -111.112283, -86.619592)"/>
  <path d="M 584.884 220.068 L 221.046 220.068 C 210.833 220.057 202.557 211.781 202.546 201.568 L 202.546 -20.586 C 202.554 -28.363 208.857 -34.665 216.634 -34.674 L 589.087 -34.674 C 596.979 -34.665 603.375 -28.269 603.384 -20.377 L 603.384 201.568 C 603.373 211.781 595.097 220.057 584.884 220.068 Z" fill="#fff" transform="matrix(1, 0, 0, 1, -111.112283, -86.619592)"/>
  <path d="M 584.884 220.068 L 221.046 220.068 C 210.833 220.057 202.557 211.781 202.546 201.568 L 202.546 -20.586 C 202.554 -28.363 208.857 -34.665 216.634 -34.674 L 589.087 -34.674 C 596.979 -34.665 603.375 -28.269 603.384 -20.377 L 603.384 201.568 C 603.373 211.781 595.097 220.057 584.884 220.068 Z M 216.634 -30.674 C 211.065 -30.667 206.552 -26.154 206.546 -20.586 L 206.546 201.568 C 206.555 209.573 213.041 216.059 221.046 216.068 L 584.884 216.068 C 592.888 216.059 599.375 209.573 599.384 201.568 L 599.384 -20.377 C 599.378 -26.061 594.771 -30.668 589.087 -30.674 Z" fill="#3f3d56" transform="matrix(1, 0, 0, 1, -111.112283, -86.619592)"/>
  <path d="M 368.657 163.822 L 259.637 163.822 C 254.121 163.814 249.461 159.727 248.732 154.259 C 248.666 153.783 248.634 153.303 248.637 152.822 L 248.637 32.572 C 248.644 26.5 253.565 21.579 259.637 21.572 L 368.657 21.572 C 374.729 21.579 379.65 26.5 379.657 32.572 L 379.657 152.822 C 379.65 158.894 374.729 163.815 368.657 163.822 Z M 259.637 27.572 C 256.877 27.575 254.64 29.812 254.637 32.572 L 254.637 152.822 C 254.635 153.028 254.648 153.233 254.675 153.437 C 254.992 155.938 257.116 157.815 259.637 157.822 L 368.657 157.822 C 371.417 157.819 373.654 155.582 373.657 152.822 L 373.657 32.572 C 373.654 29.812 371.417 27.575 368.657 27.572 Z" fill="#e6e6e6" transform="matrix(1, 0, 0, 1, -111.112283, -86.619592)"/>
  <path d="M 312.564 43.556 C 305.467 40.254 296.754 39.172 289.532 42.24 C 282.311 45.308 277.388 53.172 279.723 60.131 C 280.782 63.286 283.193 66.389 282.253 69.576 C 281.53 72.029 279.008 73.648 276.531 74.8 C 274.054 75.951 271.344 76.919 269.552 78.861 C 267.761 80.803 267.387 84.146 269.625 85.652 C 270.363 86.149 271.284 86.384 271.999 86.907 C 273.248 87.922 273.716 89.617 273.163 91.129 C 272.567 92.613 271.583 93.908 270.312 94.88 C 267.772 97.071 264.414 99.578 265.203 102.688 C 265.797 104.375 267.177 105.666 268.9 106.146 C 270.663 106.655 272.492 106.896 274.327 106.863 L 349.293 109.224 C 351.768 109.41 354.256 109.271 356.695 108.811 C 359.091 108.374 361.197 106.959 362.508 104.906 C 363.943 102.248 363.001 98.975 361.228 96.494 C 359.455 94.013 356.946 92.055 354.873 89.777 C 352.8 87.498 351.103 84.654 351.469 81.709 C 351.761 79.352 353.316 77.315 354.432 75.173 C 355.548 73.031 356.196 70.354 354.751 68.384 C 352.714 65.607 347.824 65.858 345.508 63.271 C 343.76 61.318 344.098 58.507 343.924 55.99 C 343.506 49.933 339.313 44.213 333.344 41.557 C 327.186 38.914 320.133 39.394 314.391 42.848 Z" fill="#2f2e41" transform="matrix(1, 0, 0, 1, -111.112283, -86.619592)"/>
  <circle cx="315.338" cy="84.082" r="24.561" fill="#a0616a" transform="matrix(1, 0, 0, 1, -111.112283, -86.619592)"/>
  <path d="M 347.584 140.362 C 347.534 131.59 342.661 123.558 334.904 119.462 C 334.594 119.292 334.274 119.142 333.954 118.992 C 331.19 117.682 328.198 116.921 325.144 116.752 L 301.764 115.442 C 298.462 115.254 295.157 115.761 292.064 116.932 C 291.311 117.213 290.573 117.533 289.854 117.892 C 287.595 119.005 285.528 120.474 283.734 122.242 C 278.956 126.959 276.392 133.474 276.674 140.182 L 277.094 150.092 L 280.034 157.722 L 345.404 157.722 C 346.215 156.74 346.919 155.674 347.504 154.542 C 349.751 150.089 349.78 144.84 347.584 140.362 Z" fill="#3f3d56" transform="matrix(1, 0, 0, 1, -111.112283, -86.619592)"/>
  <path d="M 345.984 127.222 C 344.917 124.908 343.245 122.924 341.144 121.482 C 339.628 120.443 337.928 119.703 336.134 119.302 C 335.416 119.144 334.688 119.041 333.954 118.992 C 332.51 118.894 331.06 119.019 329.654 119.362 C 320.672 121.597 316.159 131.658 320.464 139.852 L 329.454 156.872 L 329.904 157.722 L 360.094 157.722 Z" fill="#3f3d56" transform="matrix(1, 0, 0, 1, -111.112283, -86.619592)"/>
  <path d="M 296.574 118.352 C 295.16 117.632 293.636 117.153 292.064 116.932 C 290.895 116.765 289.708 116.749 288.534 116.882 C 282.406 117.576 277.419 122.131 276.174 128.172 L 270.084 157.722 L 293.904 157.722 L 298.354 155.902 L 303.894 134.642 C 305.554 128.169 302.516 121.409 296.574 118.352 Z" fill="#3f3d56" transform="matrix(1, 0, 0, 1, -111.112283, -86.619592)"/>
  <path d="M 290.211 80.59 C 297.968 79.968 304.407 72.219 303.601 64.479 C 303.413 71.083 308.204 76.779 314.742 77.725 C 318.3 78.117 322.201 77.041 325.297 78.836 C 328.727 80.824 329.825 85.651 333.398 87.369 C 336.851 89.028 341.236 86.765 342.942 83.335 C 344.648 79.905 344.229 75.785 343.098 72.125 C 336.052 49.311 307.244 42.217 290.409 59.15 C 287.148 62.431 284.558 66.612 284.138 71.218 C 283.718 75.825 285.855 80.824 289.992 82.893 Z" fill="#2f2e41" transform="matrix(1, 0, 0, 1, -111.112283, -86.619592)"/>
  <path d="M 549.293 124.722 L 417.293 124.722 C 411.134 124.722 407.285 118.055 410.364 112.722 C 411.793 110.247 414.434 108.722 417.293 108.722 L 549.293 108.722 C 555.451 108.722 559.3 115.389 556.221 120.722 C 554.792 123.197 552.151 124.722 549.293 124.722 Z" fill="#e6e6e6" transform="matrix(1, 0, 0, 1, -111.112283, -86.619592)"/>
  <path d="M 489.293 90.722 L 417.293 90.722 C 411.134 90.722 407.285 84.055 410.364 78.722 C 411.793 76.247 414.434 74.722 417.293 74.722 L 489.293 74.722 C 495.451 74.722 499.3 81.389 496.221 86.722 C 494.792 89.197 492.151 90.722 489.293 90.722 Z" fill="#6c63ff" transform="matrix(1, 0, 0, 1, -111.112283, -86.619592)"/>
  <path d="M 527.925 149.146 C 507.62 149.183 494.969 171.188 505.154 188.755 C 509.864 196.878 518.536 201.884 527.925 201.902 L 527.925 201.902 C 548.231 201.864 560.882 179.859 550.696 162.293 C 545.987 154.17 537.315 149.163 527.925 149.146 Z" fill="#6c63ff" transform="matrix(1, 0, 0, 1, -111.112283, -86.619592)"/>
  <path id="f276b720-7c73-4755-84a7-b208d54eb1fc" data-name="Path 395" d="M 525.423 186.479 C 524.728 186.48 524.052 186.255 523.497 185.839 L 523.462 185.813 L 516.208 180.264 C 514.241 178.751 514.649 175.676 516.942 174.729 C 518.004 174.29 519.218 174.45 520.131 175.147 L 524.829 178.75 L 535.932 164.265 C 537.015 162.853 539.038 162.586 540.45 163.669 L 540.451 163.669 L 540.382 163.765 L 540.453 163.669 C 541.864 164.754 542.13 166.775 541.049 168.188 L 527.989 185.218 C 527.377 186.013 526.429 186.478 525.425 186.475 Z" fill="#fff" transform="matrix(1, 0, 0, 1, -111.112283, -86.619592)"/>
  <ellipse cx="610.961" cy="812.823" rx="5.513" ry="98.066" transform="matrix(0.001605, -0.999999, 0.999999, 0.001605, -772.493725, 1126.646379)" fill="#e6e6e6"/>
  <circle cx="151.58" cy="52.427" r="30.588" fill="#a0616a" transform="matrix(1, 0, 0, 1, -111.112283, -86.619592)"/>
  <path d="M 120.165 107.816 L 172.247 106.99 C 167.767 94.646 165.826 83.088 168.94 73.095 L 129.259 68.961 C 134.62 81.913 131.589 94.865 120.165 107.816 Z" fill="#a0616a" transform="matrix(1, 0, 0, 1, -111.112283, -86.619592)"/>
  <path d="M 74.696 312.839 L 83.345 335.903 C 86.52 344.369 80.934 353.575 71.958 354.67 L 71.958 354.67 C 63.422 355.711 55.981 348.863 56.312 340.27 L 57.335 313.666 L 64.776 177.26 L 95.364 186.353 Z" fill="#a0616a" transform="matrix(1, 0, 0, 1, -111.112283, -86.619592)"/>
  <polygon points="106.938 569.118 131.739 566.638 154.06 350.041 185.475 570.772 208.623 569.945 214.41 327.72 103.631 327.72 106.938 569.118" fill="#2f2e41" transform="matrix(1, 0, 0, 1, -111.112283, -86.619592)"/>
  <path d="M 187.955 40.853 C 187.955 40.853 179.688 59.041 173.901 59.867 C 168.114 60.694 158.193 69.788 159.847 73.921 C 161.5 78.055 160.673 90.456 144.139 88.802 C 127.605 87.149 128.432 85.495 128.432 85.495 C 128.432 85.495 101.977 35.066 129.259 21.839 C 156.54 8.612 180.514 18.532 187.955 40.853 Z" fill="#2f2e41" transform="matrix(1, 0, 0, 1, -111.112283, -86.619592)"/>
  <path d="M 209.887 558.113 L 208.893 578.979 C 208.893 578.979 224.038 602.6 205.159 602.6 C 204.97 602.6 205.345 602.6 205.159 602.6 C 191.505 602.557 179.165 608.701 180.779 595.144 L 183.059 575.998 L 187.033 555.132 Z" fill="#2f2e41" transform="matrix(1, 0, 0, 1, -111.112283, -86.619592)"/>
  <path d="M 107.144 558.113 L 108.138 578.979 C 108.138 578.979 92.993 602.6 111.873 602.6 C 112.061 602.6 111.686 602.6 111.873 602.6 C 125.526 602.557 137.866 608.701 136.252 595.144 L 133.973 575.998 L 129.998 555.132 Z" fill="#2f2e41" transform="matrix(1, 0, 0, 1, -111.112283, -86.619592)"/>
  <path d="M 94.537 337.641 L 217.716 331.854 C 194.743 258.134 194.573 197.813 223.503 142.268 C 223.503 130.391 216.437 119.653 205.529 114.954 L 169.767 99.549 L 124.298 102.029 L 94.296 118.531 C 82.308 125.124 75.14 137.987 75.839 151.65 C 102.106 214.354 103.606 276.183 94.537 337.641 Z" fill="#e6e6e6" transform="matrix(1, 0, 0, 1, -111.112283, -86.619592)"/>
  <path d="M 116.858 193.794 L 48.241 182.22 L 59.546 154.153 C 67.59 134.182 83.937 118.707 104.318 111.769 L 111.071 109.47 Z" fill="#e6e6e6" transform="matrix(1, 0, 0, 1, -111.112283, -86.619592)"/>
  <path d="M 332.094 130.693 L 353.216 121.893 C 362.311 118.103 365.815 107.045 360.561 98.709 L 360.561 98.709 C 354.848 89.645 341.993 88.699 335.014 96.828 L 319.341 115.086 L 257.906 159.171 L 216.143 141.835 L 211.167 176.474 L 263.344 190.064 Z" fill="#a0616a" transform="matrix(1, 0, 0, 1, -111.112283, -86.619592)"/>
  <path d="M 220.76 189.891 L 254.76 157.891 L 245.76 146.891 C 237.717 126.92 219.223 118.707 198.841 111.769 L 192.088 109.47 L 186.76 163.89 Z" fill="#e6e6e6" transform="matrix(1, 0, 0, 1, -111.112283, -86.619592)"/>
</svg>