<?xml version="1.0" encoding="utf-8"?>
<svg viewBox="69.37 -29.214 766.32 561.769" xmlns="http://www.w3.org/2000/svg">
  <path d="M691.25018,146.50039h-501a9.01357,9.01357,0,0,0-9,9v296a9.01357,9.01357,0,0,0,9,9h501a9.01357,9.01357,0,0,0,9-9v-296A9.01357,9.01357,0,0,0,691.25018,146.50039Zm7,305a7.00778,7.00778,0,0,1-7,7h-501a7.00779,7.00779,0,0,1-7-7v-296a7.00778,7.00778,0,0,1,7-7h501a7.00778,7.00778,0,0,1,7,7Z" transform="matrix(1, 0, 0, 1, -111.879701, -175.714297)" fill="#3f3d56"/>
  <rect x="1" y="34" width="517" height="2" fill="#3f3d56" transform="matrix(1, 0, 0, 1, 69.370484, -29.213898)"/>
  <circle cx="18" cy="17.5" r="5" fill="#ccc" transform="matrix(1, 0, 0, 1, 69.370484, -29.213898)"/>
  <circle cx="33" cy="17.5" r="5" fill="#ccc" transform="matrix(1, 0, 0, 1, 69.370484, -29.213898)"/>
  <circle cx="48" cy="17.5" r="5" fill="#ccc" transform="matrix(1, 0, 0, 1, 69.370484, -29.213898)"/>
  <path d="M 737.809 401.578 C 743.21 398.89 744.869 391.974 741.274 387.128 L 763.856 262.153 L 742.783 261.875 L 727.101 385.46 C 721.387 390.317 723.073 399.54 730.137 402.06 C 732.653 402.958 735.426 402.783 737.809 401.578 Z" fill="#a0616a"/>
  <polygon points="672.407 395.652 664.407 433.652 665.407 518.652 680.407 518.652 687.407 435.652 698.407 400.652 672.407 395.652" fill="#a0616a"/>
  <polygon points="722.407 395.652 714.407 433.652 715.407 518.652 730.407 518.652 737.407 435.652 748.407 400.652 722.407 395.652" fill="#a0616a"/>
  <path d="M 660.157 516.478 L 683.801 516.478 C 683.801 516.478 683.801 516.478 683.801 516.478 L 683.801 531.365 C 683.801 531.365 683.801 531.365 683.801 531.365 L 645.271 531.365 C 645.271 531.365 645.271 531.365 645.271 531.365 L 645.271 531.365 C 645.271 523.143 651.936 516.478 660.157 516.478 Z" fill="#2f2e41" transform="matrix(0.998971, 0.045345, -0.045345, 0.998971, 24.440785, -29.594487)"/>
  <path d="M 710.157 516.478 L 733.801 516.478 C 733.801 516.478 733.801 516.478 733.801 516.478 L 733.801 531.365 C 733.801 531.365 733.801 531.365 733.801 531.365 L 695.271 531.365 C 695.271 531.365 695.271 531.365 695.271 531.365 L 695.271 531.365 C 695.271 523.143 701.936 516.478 710.157 516.478 Z" fill="#2f2e41" transform="matrix(0.998971, 0.045345, -0.045345, 0.998971, 24.492215, -31.861739)"/>
  <circle cx="708.906" cy="184.736" r="24.561" fill="#a0616a"/>
  <path d="M 763.184 245.485 C 755.057 232.732 728.018 200.957 687.906 227.153 C 687.906 227.153 697.406 306.653 674.406 349.653 C 674.406 349.653 727.406 365.653 756.406 350.653 C 756.406 350.653 746.406 283.653 756.406 270.653 C 759.741 266.499 762.441 261.873 764.419 256.927 C 765.827 253.13 765.37 248.893 763.184 245.485 Z" fill="#ccc"/>
  <path d="M 753.406 244.653 L 763.22 248.742 C 764.554 249.298 765.445 250.576 765.505 252.019 L 766.406 273.653 L 744.406 271.653 Z" fill="#ccc"/>
  <path d="M 678.406 347.653 C 678.406 347.653 656.406 388.653 660.406 426.653 L 691.406 431.653 L 713.406 378.653 L 708.406 432.653 L 740.406 433.653 C 740.406 433.653 761.406 355.653 754.406 348.653 Z" fill="#2f2e41"/>
  <path d="M 672.809 391.578 C 678.21 388.89 679.869 381.974 676.274 377.128 L 698.856 252.153 L 677.783 251.875 L 662.101 375.46 C 656.387 380.317 658.073 389.54 665.137 392.06 C 667.653 392.958 670.426 392.783 672.809 391.578 Z" fill="#a0616a"/>
  <path d="M 697.406 227.653 L 688.406 226.653 C 688.406 226.653 680.406 224.653 677.406 235.653 C 674.406 246.653 674.406 268.653 674.406 268.653 L 702.406 267.653 Z" fill="#ccc"/>
  <path d="M 712.841 196.56 C 713.723 193.498 713.468 189.355 710.499 188.197 C 708.953 187.593 707.227 188.069 705.576 188.239 C 702.344 188.556 699.109 187.666 696.495 185.739 C 693.424 183.457 691.528 179.967 689.727 176.592 L 687.003 171.486 C 686.397 170.422 685.88 169.309 685.457 168.159 C 683.942 163.652 685.588 158.434 688.957 155.078 C 692.477 151.802 697.111 149.986 701.919 149.995 C 706.69 150.03 711.404 151.039 715.77 152.963 C 723.532 156.126 730.561 160.849 736.424 166.838 C 740.256 170.758 743.744 175.865 742.943 181.288 C 742.32 185.509 739.243 188.889 736.309 191.987 L 725.664 203.224 C 723.779 205.214 721.764 207.285 719.132 208.051 C 716.5 208.816 713.109 207.692 712.391 205.046 C 712.391 205.046 711.959 199.622 712.841 196.56 Z" fill="#2f2e41"/>
  <path d="M 835.691 531.555 C 835.689 532.106 835.243 532.553 834.691 532.555 L 546.691 532.555 C 545.921 532.555 545.44 531.721 545.825 531.055 C 546.004 530.745 546.334 530.555 546.691 530.555 L 834.691 530.555 C 835.243 530.556 835.689 531.003 835.691 531.555 Z" fill="#3f3d56"/>
  <path d="M 294.183 178.069 L 106.069 178.069 C 100.79 178.063 96.511 173.756 96.505 168.44 L 96.505 52.809 C 96.509 48.761 99.767 45.48 103.788 45.476 L 296.356 45.476 C 300.437 45.48 303.743 48.809 303.748 52.918 L 303.748 168.44 C 303.742 173.756 299.463 178.063 294.183 178.069 Z" fill="#fff" style=""/>
  <path d="M 294.183 178.069 L 106.069 178.069 C 100.79 178.063 96.511 173.756 96.505 168.44 L 96.505 52.809 C 96.509 48.761 99.767 45.48 103.788 45.476 L 296.356 45.476 C 300.437 45.48 303.743 48.809 303.748 52.918 L 303.748 168.44 C 303.742 173.756 299.463 178.063 294.183 178.069 Z M 103.788 47.558 C 100.909 47.561 98.576 49.91 98.573 52.809 L 98.573 168.44 C 98.577 172.606 101.931 175.982 106.069 175.987 L 294.183 175.987 C 298.321 175.982 301.675 172.606 301.68 168.44 L 301.68 52.918 C 301.676 49.959 299.295 47.561 296.356 47.558 Z" fill="#e6e6e6" style=""/>
  <path d="M 182.388 148.793 L 126.022 148.793 C 123.17 148.789 120.761 146.661 120.384 143.815 C 120.35 143.568 120.334 143.318 120.335 143.067 L 120.335 80.477 C 120.339 77.317 122.883 74.755 126.022 74.752 L 182.388 74.752 C 185.528 74.755 188.072 77.317 188.076 80.477 L 188.076 143.067 C 188.072 146.228 185.528 148.789 182.388 148.793 Z M 126.022 77.875 C 124.595 77.876 123.439 79.041 123.437 80.477 L 123.437 143.067 C 123.436 143.175 123.443 143.281 123.457 143.387 C 123.62 144.689 124.719 145.666 126.022 145.67 L 182.388 145.67 C 183.815 145.668 184.972 144.504 184.974 143.067 L 184.974 80.477 C 184.972 79.041 183.815 77.876 182.388 77.875 Z" fill="#e6e6e6" style=""/>
  <path d="M 275.781 128.441 L 207.534 128.441 C 204.35 128.441 202.36 124.972 203.952 122.195 C 204.691 120.907 206.056 120.113 207.534 120.113 L 275.781 120.113 C 278.966 120.113 280.956 123.583 279.363 126.359 C 278.624 127.648 277.259 128.441 275.781 128.441 Z" fill="#e6e6e6" style=""/>
  <path d="M 244.76 110.744 L 207.534 110.744 C 204.35 110.744 202.36 107.275 203.952 104.498 C 204.691 103.21 206.056 102.416 207.534 102.416 L 244.76 102.416 C 247.944 102.416 249.934 105.886 248.342 108.662 C 247.603 109.95 246.237 110.744 244.76 110.744 Z" fill="#e6e6e6" style=""/>
  <path d="M 172.79 110.052 C 172.79 119.251 164.341 117.86 153.919 117.86 C 143.497 117.86 135.048 119.251 135.048 110.052 C 135.048 100.853 139.175 84.547 153.919 84.547 C 169.171 84.547 172.79 100.853 172.79 110.052 Z" fill="#2f2e41" style=""/>
  <path d="M 173.554 125.534 C 173.19 124.476 172.464 123.583 171.506 123.015 C 171.322 122.901 171.128 122.801 170.927 122.718 C 167.6 121.325 164.022 124.081 164.488 127.678 C 164.533 128.023 164.615 128.362 164.733 128.688 L 172.251 145.891 L 182.152 145.891 Z" fill="#3f3d56" style=""/>
  <path d="M 140.748 126.471 C 138.229 125.245 135.213 126.503 134.291 129.162 L 127.29 145.74 C 127.649 145.841 128.019 145.891 128.391 145.891 L 137.176 145.891 L 143.111 132.316 C 143.931 130.046 142.91 127.519 140.748 126.471 Z" fill="#3f3d56" style=""/>
  <circle cx="1078.808" cy="-48.205" r="24.561" fill="#ffb8b8" style="" transform="matrix(0.517024, 0, 0, 0.520501, -403.914435, 130.150988)"/>
  <path d="M 171.728 123.218 C 171.656 123.15 171.584 123.077 171.506 123.015 C 169.715 121.388 167.306 120.633 164.914 120.948 L 141.514 123.931 C 137.057 124.485 133.846 128.507 134.265 133.008 C 134.585 136.641 135.102 141.227 135.93 145.891 L 172.897 145.891 L 174.257 129.984 C 174.479 127.459 173.548 124.97 171.728 123.218 Z" fill="#3f3d56" style=""/>
  <path d="M 139.184 103.806 L 139.184 103.806 L 144.206 103.806 L 146.422 97.56 L 146.865 103.806 L 149.266 103.806 L 150.558 100.162 L 150.817 103.806 L 168.654 103.806 L 168.654 103.806 C 168.654 96.332 162.636 90.273 155.212 90.273 L 152.626 90.273 C 145.203 90.273 139.184 96.332 139.184 103.806 Z" fill="#2f2e41" style=""/>
  <path d="M 353.6 168.44 L 353.6 52.918 C 353.605 48.809 356.912 45.48 360.992 45.476 L 553.559 45.476 C 557.581 45.48 560.839 48.761 560.843 52.809 L 560.843 168.44 C 560.837 173.756 556.559 178.063 551.278 178.069 L 363.165 178.069 C 357.885 178.063 353.606 173.756 353.6 168.44 Z" fill="#fff" style=""/>
  <path d="M 353.6 168.44 L 353.6 52.918 C 353.605 48.809 356.912 45.48 360.992 45.476 L 553.559 45.476 C 557.581 45.48 560.839 48.761 560.843 52.809 L 560.843 168.44 C 560.837 173.756 556.559 178.063 551.278 178.069 L 363.165 178.069 C 357.885 178.063 353.606 173.756 353.6 168.44 Z M 360.992 47.558 C 358.053 47.561 355.671 49.959 355.668 52.918 L 355.668 168.44 C 355.673 172.606 359.027 175.982 363.165 175.987 L 551.278 175.987 C 555.417 175.982 558.77 172.606 558.775 168.44 L 558.775 52.809 C 558.772 49.91 556.439 47.561 553.559 47.558 Z" fill="#e6e6e6" style=""/>
  <path d="M 469.272 143.067 L 469.272 80.477 C 469.276 77.317 471.82 74.755 474.96 74.752 L 531.326 74.752 C 534.465 74.755 537.009 77.317 537.013 80.477 L 537.013 143.067 C 537.015 143.318 536.998 143.568 536.964 143.815 C 536.587 146.661 534.178 148.789 531.326 148.793 L 474.96 148.793 C 471.82 148.789 469.276 146.228 469.272 143.067 Z M 474.96 77.875 C 473.533 77.876 472.376 79.041 472.375 80.477 L 472.375 143.067 C 472.376 144.504 473.533 145.668 474.96 145.67 L 531.326 145.67 C 532.629 145.666 533.727 144.689 533.891 143.387 C 533.905 143.281 533.912 143.175 533.911 143.067 L 533.911 80.477 C 533.909 79.041 532.753 77.876 531.326 77.875 Z" fill="#e6e6e6" style=""/>
  <path d="M 377.43 124.277 C 377.433 121.979 379.283 120.116 381.566 120.113 L 449.814 120.113 C 452.998 120.113 454.988 123.583 453.396 126.359 C 452.657 127.648 451.292 128.441 449.814 128.441 L 381.566 128.441 C 379.283 128.439 377.433 126.576 377.43 124.277 Z" fill="#e6e6e6" style=""/>
  <path d="M 377.43 106.58 C 377.433 104.282 379.283 102.419 381.566 102.416 L 418.792 102.416 C 421.977 102.416 423.967 105.886 422.375 108.662 C 421.636 109.95 420.27 110.744 418.792 110.744 L 381.566 110.744 C 379.283 110.742 377.433 108.879 377.43 106.58 Z" fill="#e6e6e6" style=""/>
  <path d="M 489.213 99.075 C 492.838 106.249 495.694 113.649 503.69 113.649 C 514.834 113.649 521.799 101.504 516.227 91.788 C 513.641 87.279 508.861 84.501 503.69 84.501 C 495.564 84.398 482.466 85.721 489.213 99.075 Z" fill="#2f2e41" style=""/>
  <circle cx="1754.059" cy="-55.721" r="24.561" fill="#a0616a" style="" transform="matrix(0.517024, 0, 0, 0.520501, -403.914435, 130.150988)"/>
  <path d="M 520.314 124.451 C 519.495 123.553 518.605 122.725 517.651 121.974 C 513.483 118.684 508.259 117.054 502.973 117.393 C 502.761 117.404 502.549 117.419 502.337 117.44 C 496.145 117.938 490.465 121.093 486.744 126.101 C 482.965 131.186 481.548 137.664 482.856 143.876 C 482.995 144.527 483.119 145.183 483.238 145.838 L 525.334 145.838 L 525.82 142.559 C 526.805 135.995 524.78 129.336 520.314 124.451 Z" fill="#3f3d56" style=""/>
  <path d="M 526.761 127.871 C 526.149 124.341 523.118 121.757 519.559 121.729 C 519.492 121.729 519.42 121.734 519.352 121.734 C 518.778 121.748 518.207 121.828 517.651 121.974 C 513.721 123.025 511.389 127.094 512.45 131.046 L 516.426 145.838 L 529.807 145.838 Z" fill="#3f3d56" style=""/>
  <path d="M 497.317 123.993 C 496.812 122.996 496.089 122.128 495.202 121.453 C 494.574 120.976 493.872 120.606 493.124 120.36 C 492.818 120.255 492.505 120.172 492.188 120.11 C 488.615 119.43 485.083 121.471 483.864 124.92 L 476.584 145.838 L 490.399 145.838 L 497.446 130.452 C 498.398 128.395 498.35 126.01 497.317 123.993 Z" fill="#3f3d56" style=""/>
  <path d="M 489.502 93.924 C 492.404 95.937 495.848 97.009 499.372 96.995 C 498.115 97.872 496.684 98.465 495.177 98.732 C 499.863 99.744 504.706 99.771 509.403 98.812 C 510.447 98.644 511.454 98.295 512.381 97.783 C 513.315 97.258 513.983 96.358 514.219 95.308 C 514.531 93.513 513.141 91.882 511.698 90.783 C 507.221 87.428 501.485 86.273 496.071 87.64 C 494.325 88.094 492.577 88.861 491.443 90.272 C 490.309 91.684 489.973 93.86 491.054 95.313 Z" fill="#2f2e41" style=""/>
  <path d="M 422.73 253.021 L 234.617 253.021 C 229.337 253.015 225.059 248.708 225.052 243.392 L 225.052 127.761 C 225.057 123.713 228.315 120.432 232.336 120.428 L 424.903 120.428 C 428.984 120.432 432.291 123.761 432.295 127.87 L 432.295 243.392 C 432.29 248.708 428.011 253.015 422.73 253.021 Z" fill="#fff" style=""/>
  <path d="M 422.73 253.021 L 234.617 253.021 C 229.337 253.015 225.059 248.708 225.052 243.392 L 225.052 127.761 C 225.057 123.713 228.315 120.432 232.336 120.428 L 424.903 120.428 C 428.984 120.432 432.291 123.761 432.295 127.87 L 432.295 243.392 C 432.29 248.708 428.011 253.015 422.73 253.021 Z M 232.336 122.51 C 229.457 122.513 227.123 124.862 227.12 127.761 L 227.12 243.392 C 227.125 247.558 230.479 250.934 234.617 250.939 L 422.73 250.939 C 426.869 250.934 430.223 247.558 430.227 243.392 L 430.227 127.87 C 430.224 124.911 427.843 122.513 424.903 122.51 Z" fill="#3f3d56" style=""/>
  <path d="M 310.936 223.745 L 254.57 223.745 C 251.718 223.741 249.308 221.613 248.932 218.767 C 248.897 218.52 248.881 218.27 248.883 218.019 L 248.883 155.429 C 248.886 152.269 251.43 149.707 254.57 149.704 L 310.936 149.704 C 314.076 149.707 316.62 152.269 316.624 155.429 L 316.624 218.019 C 316.62 221.18 314.076 223.741 310.936 223.745 Z M 254.57 152.827 C 253.143 152.828 251.987 153.993 251.985 155.429 L 251.985 218.019 C 251.984 218.127 251.99 218.233 252.005 218.34 C 252.168 219.641 253.266 220.618 254.57 220.622 L 310.936 220.622 C 312.363 220.62 313.519 219.456 313.521 218.019 L 313.521 155.429 C 313.519 153.993 312.363 152.828 310.936 152.827 Z" fill="#e6e6e6" style=""/>
  <path d="M 281.935 161.146 C 278.265 159.428 273.76 158.865 270.027 160.461 C 266.293 162.058 263.747 166.152 264.955 169.774 C 265.502 171.416 266.749 173.031 266.263 174.69 C 265.889 175.967 264.585 176.809 263.304 177.409 C 262.024 178.008 260.623 178.512 259.697 179.523 C 258.77 180.533 258.577 182.274 259.734 183.058 C 260.115 183.316 260.592 183.438 260.961 183.711 C 261.607 184.239 261.849 185.122 261.564 185.908 C 261.255 186.681 260.746 187.355 260.089 187.861 C 258.776 189.001 257.04 190.306 257.448 191.925 C 257.755 192.803 258.469 193.475 259.359 193.725 C 260.271 193.989 261.217 194.115 262.165 194.098 L 300.925 195.327 C 302.204 195.423 303.491 195.351 304.751 195.112 C 305.99 194.884 307.079 194.148 307.757 193.079 C 308.499 191.696 308.011 189.992 307.095 188.701 C 306.179 187.409 304.881 186.39 303.809 185.204 C 302.737 184.018 301.86 182.538 302.049 181.005 C 302.201 179.778 303.004 178.718 303.581 177.603 C 304.158 176.488 304.494 175.095 303.746 174.069 C 302.693 172.624 300.165 172.755 298.967 171.408 C 298.064 170.392 298.238 168.929 298.148 167.618 C 297.932 164.466 295.764 161.488 292.678 160.106 C 289.495 158.73 285.848 158.98 282.879 160.778 Z" fill="#2f2e41" style=""/>
  <circle cx="1329.304" cy="100.075" r="24.561" fill="#a0616a" style="" transform="matrix(0.517024, 0, 0, 0.520501, -403.914435, 130.150988)"/>
  <path d="M 300.041 211.534 C 300.015 206.969 297.495 202.787 293.485 200.656 C 293.325 200.567 293.159 200.489 292.994 200.411 C 291.565 199.729 290.018 199.333 288.439 199.245 L 276.351 198.563 C 274.644 198.465 272.935 198.729 271.336 199.339 C 270.946 199.485 270.565 199.651 270.193 199.838 C 269.025 200.418 267.957 201.182 267.029 202.103 C 264.559 204.558 263.233 207.949 263.378 211.44 L 263.596 216.598 L 265.116 220.57 L 298.913 220.57 C 299.333 220.059 299.697 219.504 300 218.915 C 301.161 216.597 301.176 213.865 300.041 211.534 Z" fill="#3f3d56" style=""/>
  <path d="M 299.214 204.695 C 298.662 203.49 297.798 202.458 296.711 201.707 C 295.927 201.167 295.048 200.781 294.121 200.572 C 293.75 200.49 293.373 200.436 292.994 200.411 C 292.247 200.36 291.497 200.425 290.77 200.603 C 286.126 201.767 283.794 207.004 286.019 211.269 L 290.667 220.127 L 290.899 220.57 L 306.509 220.57 Z" fill="#3f3d56" style=""/>
  <path d="M 273.667 200.078 C 272.936 199.704 272.148 199.454 271.336 199.339 C 270.731 199.252 270.118 199.243 269.511 199.313 C 266.342 199.674 263.763 202.045 263.12 205.189 L 259.972 220.57 L 272.287 220.57 L 274.588 219.623 L 277.452 208.557 C 278.31 205.188 276.74 201.669 273.667 200.078 Z" fill="#3f3d56" style=""/>
  <path d="M 270.378 180.423 C 274.388 180.099 277.717 176.066 277.3 172.037 C 277.203 175.474 279.68 178.44 283.061 178.931 C 284.9 179.135 286.917 178.575 288.518 179.51 C 290.291 180.544 290.859 183.057 292.706 183.951 C 294.491 184.815 296.758 183.637 297.64 181.851 C 298.523 180.067 298.306 177.922 297.722 176.017 C 294.078 164.142 279.184 160.449 270.48 169.263 C 268.794 170.971 267.455 173.147 267.237 175.544 C 267.02 177.942 268.125 180.544 270.265 181.621 Z" fill="#2f2e41" style=""/>
  <path d="M 404.329 203.393 L 336.082 203.393 C 332.898 203.393 330.908 199.924 332.5 197.147 C 333.239 195.859 334.604 195.065 336.082 195.065 L 404.329 195.065 C 407.513 195.065 409.503 198.536 407.911 201.311 C 407.172 202.6 405.807 203.393 404.329 203.393 Z" fill="#e6e6e6" style=""/>
  <path d="M 373.308 185.696 L 336.082 185.696 C 332.898 185.696 330.908 182.227 332.5 179.45 C 333.239 178.162 334.604 177.368 336.082 177.368 L 373.308 177.368 C 376.491 177.368 378.481 180.839 376.889 183.614 C 376.151 184.903 374.785 185.696 373.308 185.696 Z" fill="#6c63ff" style=""/>
  <path d="M 393.282 216.106 C 382.783 216.126 376.243 227.579 381.509 236.723 C 383.943 240.951 388.427 243.557 393.282 243.566 L 393.282 243.566 C 403.78 243.546 410.321 232.092 405.055 222.949 C 402.62 218.721 398.136 216.115 393.282 216.106 Z" fill="#6c63ff" style=""/>
  <path id="f276b720-7c73-4755-84a7-b208d54eb1fc" data-name="Path 395" d="M 391.988 235.538 C 391.629 235.538 391.279 235.422 390.992 235.205 L 390.974 235.191 L 387.224 232.303 C 386.206 231.516 386.417 229.915 387.603 229.422 C 388.152 229.194 388.78 229.277 389.252 229.64 L 391.681 231.515 L 397.422 223.976 C 397.981 223.241 399.027 223.102 399.757 223.665 L 399.757 223.666 L 399.722 223.715 L 399.758 223.666 C 400.488 224.23 400.626 225.282 400.067 226.017 L 393.315 234.882 C 392.998 235.295 392.508 235.537 391.989 235.536 Z" fill="#fff" style=""/>
</svg>