<?xml version="1.0" encoding="utf-8"?>
<svg viewBox="-99.445 -90.189 1068.386 595.769" xmlns="http://www.w3.org/2000/svg">
  <path d="M 548.117 231.384 L 251.25 231.384 C 242.917 231.375 236.165 224.656 236.155 216.365 L 236.155 36.011 C 236.162 29.698 241.305 24.581 247.65 24.574 L 551.546 24.574 C 557.986 24.581 563.204 29.773 563.211 36.181 L 563.211 216.365 C 563.202 224.656 556.449 231.375 548.117 231.384 Z" fill="#fff" style=""/>
  <path d="M 548.117 231.384 L 251.25 231.384 C 242.917 231.375 236.165 224.656 236.155 216.365 L 236.155 36.011 C 236.162 29.698 241.305 24.581 247.65 24.574 L 551.546 24.574 C 557.986 24.581 563.204 29.773 563.211 36.181 L 563.211 216.365 C 563.202 224.656 556.449 231.375 548.117 231.384 Z M 247.65 27.821 C 243.106 27.826 239.424 31.49 239.419 36.011 L 239.419 216.365 C 239.427 222.863 244.719 228.129 251.25 228.137 L 548.117 228.137 C 554.648 228.129 559.94 222.863 559.948 216.365 L 559.948 36.181 C 559.943 31.566 556.184 27.826 551.546 27.821 Z" fill="#e6e6e6" style=""/>
  <path d="M 371.691 185.721 L 282.738 185.721 C 278.237 185.714 274.435 182.397 273.84 177.957 C 273.786 177.571 273.76 177.181 273.763 176.791 L 273.763 79.167 C 273.768 74.237 277.783 70.242 282.738 70.237 L 371.691 70.237 C 376.645 70.242 380.66 74.237 380.666 79.167 L 380.666 176.791 C 380.66 181.721 376.645 185.715 371.691 185.721 Z M 282.738 75.108 C 280.486 75.11 278.661 76.926 278.658 79.167 L 278.658 176.791 C 278.657 176.958 278.667 177.124 278.689 177.29 C 278.948 179.32 280.681 180.844 282.738 180.85 L 371.691 180.85 C 373.943 180.847 375.768 179.032 375.77 176.791 L 375.77 79.167 C 375.768 76.926 373.943 75.11 371.691 75.108 Z" fill="#e6e6e6" style=""/>
  <path d="M 519.077 153.978 L 411.374 153.978 C 406.349 153.978 403.208 148.566 405.721 144.236 C 406.887 142.226 409.042 140.988 411.374 140.988 L 519.077 140.988 C 524.101 140.988 527.242 146.401 524.73 150.731 C 523.563 152.74 521.409 153.978 519.077 153.978 Z" fill="#e6e6e6" style=""/>
  <path d="M 470.121 126.375 L 411.374 126.375 C 406.349 126.375 403.208 120.963 405.721 116.633 C 406.887 114.624 409.042 113.386 411.374 113.386 L 470.121 113.386 C 475.146 113.386 478.286 118.798 475.774 123.128 C 474.608 125.137 472.453 126.375 470.121 126.375 Z" fill="#e6e6e6" style=""/>
  <path d="M 356.544 125.296 C 356.544 139.643 343.21 137.473 326.763 137.473 C 310.315 137.473 296.981 139.643 296.981 125.296 C 296.981 110.948 303.494 85.515 326.763 85.515 C 350.833 85.515 356.544 110.948 356.544 125.296 Z" fill="#2f2e41" style=""/>
  <path d="M 357.749 149.443 C 357.174 147.793 356.029 146.401 354.518 145.514 C 354.226 145.335 353.92 145.181 353.604 145.051 C 348.352 142.878 342.707 147.176 343.441 152.788 C 343.512 153.325 343.642 153.853 343.829 154.363 L 355.692 181.194 L 371.318 181.194 Z" fill="#3f3d56" style=""/>
  <path d="M 305.978 150.904 C 302.003 148.993 297.242 150.954 295.787 155.101 L 284.739 180.959 C 285.305 181.116 285.89 181.195 286.477 181.194 L 300.34 181.194 L 309.706 160.021 C 311.001 156.48 309.389 152.54 305.978 150.904 Z" fill="#3f3d56" style=""/>
  <circle cx="110.92579" cy="114.47548" r="24.56103" fill="#ffb8b8" transform="matrix(0.81593, 0, 0, 0.811842, 236.15488, 24.573531)" style=""/>
  <path d="M 354.868 145.83 C 354.754 145.725 354.64 145.611 354.518 145.514 C 351.69 142.977 347.889 141.8 344.115 142.291 L 307.185 146.942 C 300.152 147.808 295.084 154.08 295.746 161.101 C 296.252 166.768 297.068 173.92 298.373 181.194 L 356.712 181.194 L 358.858 156.384 C 359.208 152.446 357.74 148.563 354.868 145.83 Z" fill="#3f3d56" style=""/>
  <path d="M 303.509 115.554 L 303.509 115.554 L 311.435 115.554 L 314.932 105.811 L 315.631 115.554 L 319.419 115.554 L 321.459 109.871 L 321.867 115.554 L 350.017 115.554 L 350.017 115.554 C 350.017 103.896 340.519 94.446 328.802 94.446 L 324.723 94.446 C 313.007 94.446 303.509 103.896 303.509 115.554 Z" fill="#2f2e41" style=""/>
  <path d="M 641.885 216.365 L 641.885 36.181 C 641.892 29.773 647.11 24.581 653.55 24.574 L 957.446 24.574 C 963.791 24.581 968.934 29.698 968.941 36.011 L 968.941 216.365 C 968.931 224.656 962.179 231.375 953.846 231.384 L 656.979 231.384 C 648.647 231.375 641.894 224.656 641.885 216.365 Z" fill="#fff" style=""/>
  <path d="M 641.885 216.365 L 641.885 36.181 C 641.892 29.773 647.11 24.581 653.55 24.574 L 957.446 24.574 C 963.791 24.581 968.934 29.698 968.941 36.011 L 968.941 216.365 C 968.931 224.656 962.179 231.375 953.846 231.384 L 656.979 231.384 C 648.647 231.375 641.894 224.656 641.885 216.365 Z M 653.55 27.821 C 648.912 27.826 645.153 31.566 645.148 36.181 L 645.148 216.365 C 645.156 222.863 650.448 228.129 656.979 228.137 L 953.846 228.137 C 960.377 228.129 965.669 222.863 965.677 216.365 L 965.677 36.011 C 965.672 31.49 961.99 27.826 957.446 27.821 Z" fill="#e6e6e6" style=""/>
  <path d="M 824.43 176.791 L 824.43 79.167 C 824.436 74.237 828.451 70.242 833.405 70.237 L 922.358 70.237 C 927.313 70.242 931.328 74.237 931.333 79.167 L 931.333 176.791 C 931.336 177.181 931.31 177.571 931.256 177.957 C 930.661 182.397 926.859 185.714 922.358 185.721 L 833.405 185.721 C 828.451 185.715 824.436 181.721 824.43 176.791 Z M 833.405 75.108 C 831.153 75.11 829.328 76.926 829.326 79.167 L 829.326 176.791 C 829.328 179.032 831.153 180.847 833.405 180.85 L 922.358 180.85 C 924.415 180.844 926.148 179.32 926.407 177.29 C 926.429 177.124 926.439 176.958 926.438 176.791 L 926.438 79.167 C 926.435 76.926 924.61 75.11 922.358 75.108 Z" fill="#e6e6e6" style=""/>
  <path d="M 679.492 147.483 C 679.496 143.898 682.416 140.993 686.019 140.988 L 793.722 140.988 C 798.747 140.988 801.887 146.401 799.375 150.731 C 798.209 152.74 796.054 153.978 793.722 153.978 L 686.019 153.978 C 682.416 153.974 679.496 151.068 679.492 147.483 Z" fill="#e6e6e6" style=""/>
  <path d="M 679.492 119.881 C 679.496 116.295 682.416 113.39 686.019 113.386 L 744.766 113.386 C 749.791 113.386 752.932 118.798 750.419 123.128 C 749.253 125.137 747.098 126.375 744.766 126.375 L 686.019 126.375 C 682.416 126.371 679.496 123.466 679.492 119.881 Z" fill="#e6e6e6" style=""/>
  <path d="M 855.899 108.174 C 861.619 119.364 866.127 130.905 878.745 130.905 C 896.332 130.905 907.323 111.962 898.53 96.808 C 894.449 89.775 886.907 85.442 878.745 85.442 C 865.922 85.282 845.252 87.346 855.899 108.174 Z" fill="#2f2e41" style=""/>
  <circle cx="786.17659" cy="106.96012" r="24.56103" fill="#a0616a" transform="matrix(0.81593, 0, 0, 0.811842, 236.15488, 24.573531)" style=""/>
  <path d="M 904.98 147.754 C 903.688 146.354 902.283 145.062 900.778 143.89 C 894.2 138.76 885.955 136.217 877.614 136.746 C 877.28 136.762 876.945 136.786 876.61 136.819 C 866.838 137.596 857.874 142.517 852.002 150.328 C 846.039 158.258 843.802 168.363 845.866 178.052 C 846.087 179.067 846.282 180.09 846.47 181.113 L 912.903 181.113 L 913.67 175.998 C 915.223 165.76 912.028 155.373 904.98 147.754 Z" fill="#3f3d56" style=""/>
  <path d="M 915.155 153.088 C 914.188 147.583 909.406 143.552 903.789 143.508 C 903.683 143.508 903.569 143.517 903.463 143.517 C 902.556 143.537 901.656 143.662 900.778 143.89 C 894.575 145.53 890.895 151.876 892.57 158.04 L 898.845 181.113 L 919.961 181.113 Z" fill="#3f3d56" style=""/>
  <path d="M 868.688 147.04 C 867.892 145.485 866.751 144.13 865.351 143.078 C 864.36 142.333 863.251 141.757 862.071 141.373 C 861.588 141.209 861.095 141.079 860.594 140.984 C 854.956 139.922 849.38 143.106 847.457 148.485 L 835.969 181.113 L 857.771 181.113 L 868.892 157.115 C 870.394 153.906 870.319 150.186 868.688 147.04 Z" fill="#3f3d56" style=""/>
  <path d="M 856.355 100.14 C 860.934 103.28 866.37 104.951 871.931 104.929 C 869.947 106.298 867.689 107.223 865.311 107.639 C 872.706 109.217 880.349 109.26 887.761 107.765 C 889.408 107.502 890.998 106.959 892.46 106.159 C 893.934 105.34 894.989 103.937 895.361 102.299 C 895.854 99.499 893.661 96.955 891.383 95.241 C 884.318 90.008 875.265 88.207 866.722 90.338 C 863.967 91.046 861.207 92.244 859.418 94.445 C 857.629 96.646 857.098 100.04 858.803 102.306 Z" fill="#2f2e41" style=""/>
  <path d="M 750.981 348.289 L 454.115 348.289 C 445.782 348.28 439.029 341.561 439.02 333.27 L 439.02 152.916 C 439.027 146.603 444.169 141.486 450.515 141.479 L 754.411 141.479 C 760.85 141.486 766.069 146.679 766.076 153.086 L 766.076 333.27 C 766.067 341.561 759.314 348.28 750.981 348.289 Z" fill="#fff" style=""/>
  <path d="M 750.981 348.289 L 454.115 348.289 C 445.782 348.28 439.029 341.561 439.02 333.27 L 439.02 152.916 C 439.027 146.603 444.169 141.486 450.515 141.479 L 754.411 141.479 C 760.85 141.486 766.069 146.679 766.076 153.086 L 766.076 333.27 C 766.067 341.561 759.314 348.28 750.981 348.289 Z M 450.515 144.726 C 445.971 144.732 442.289 148.395 442.284 152.916 L 442.284 333.27 C 442.291 339.768 447.584 345.034 454.115 345.042 L 750.981 345.042 C 757.512 345.034 762.805 339.768 762.812 333.27 L 762.812 153.086 C 762.807 148.471 759.049 144.731 754.411 144.726 Z" fill="#3f3d56" style=""/>
  <path d="M 574.555 302.626 L 485.603 302.626 C 481.102 302.62 477.299 299.302 476.705 294.863 C 476.651 294.476 476.625 294.086 476.627 293.696 L 476.627 196.072 C 476.633 191.142 480.648 187.147 485.603 187.142 L 574.555 187.142 C 579.51 187.147 583.525 191.142 583.53 196.072 L 583.53 293.696 C 583.525 298.626 579.51 302.621 574.555 302.626 Z M 485.603 192.013 C 483.351 192.015 481.526 193.831 481.523 196.072 L 481.523 293.696 C 481.521 293.863 481.532 294.03 481.554 294.195 C 481.812 296.226 483.546 297.75 485.603 297.755 L 574.555 297.755 C 576.807 297.753 578.632 295.937 578.635 293.696 L 578.635 196.072 C 578.632 193.831 576.807 192.015 574.555 192.013 Z" fill="#e6e6e6" style=""/>
  <path d="M 528.787 204.989 C 522.997 202.309 515.887 201.43 509.995 203.921 C 504.103 206.411 500.086 212.795 501.991 218.445 C 502.855 221.007 504.822 223.526 504.056 226.113 C 503.466 228.104 501.408 229.419 499.387 230.354 C 497.365 231.289 495.154 232.075 493.693 233.651 C 492.231 235.228 491.926 237.942 493.752 239.165 C 494.354 239.568 495.106 239.759 495.689 240.183 C 496.708 241.007 497.09 242.384 496.639 243.611 C 496.153 244.816 495.349 245.867 494.313 246.656 C 492.24 248.435 489.5 250.47 490.144 252.995 C 490.629 254.365 491.755 255.413 493.161 255.803 C 494.599 256.215 496.092 256.411 497.589 256.384 L 558.756 258.301 C 560.775 258.452 562.805 258.339 564.795 257.966 C 566.75 257.611 568.469 256.462 569.538 254.795 C 570.709 252.638 569.94 249.981 568.494 247.966 C 567.047 245.952 565 244.363 563.308 242.513 C 561.617 240.663 560.233 238.354 560.531 235.964 C 560.77 234.05 562.038 232.396 562.949 230.657 C 563.859 228.918 564.388 226.745 563.209 225.145 C 561.547 222.891 557.557 223.095 555.667 220.995 C 554.241 219.409 554.517 217.127 554.375 215.083 C 554.034 210.166 550.612 205.523 545.742 203.366 C 540.718 201.22 534.963 201.61 530.278 204.414 Z" fill="#2f2e41" style=""/>
  <circle cx="361.4221" cy="262.75611" r="24.56103" fill="#a0616a" transform="matrix(0.81593, 0, 0, 0.811842, 236.15488, 24.573531)" style=""/>
  <path d="M 557.361 283.58 C 557.32 276.459 553.344 269.938 547.015 266.613 C 546.763 266.475 546.501 266.353 546.24 266.231 C 543.985 265.168 541.544 264.55 539.052 264.413 L 519.975 263.349 C 517.281 263.196 514.585 263.608 512.061 264.559 C 511.446 264.787 510.844 265.047 510.258 265.338 C 508.414 266.242 506.728 267.434 505.264 268.87 C 501.366 272.699 499.274 277.988 499.504 283.434 L 499.847 291.48 L 502.245 297.674 L 555.582 297.674 C 556.244 296.876 556.818 296.011 557.296 295.092 C 559.129 291.477 559.153 287.216 557.361 283.58 Z" fill="#3f3d56" style=""/>
  <path d="M 556.056 272.913 C 555.185 271.034 553.821 269.424 552.107 268.253 C 550.87 267.41 549.482 266.809 548.019 266.483 C 547.433 266.355 546.839 266.271 546.24 266.231 C 545.062 266.151 543.879 266.253 542.731 266.532 C 535.402 268.346 531.721 276.514 535.233 283.166 L 542.569 296.984 L 542.935 297.674 L 567.569 297.674 Z" fill="#3f3d56" style=""/>
  <path d="M 515.74 265.712 C 514.586 265.128 513.343 264.738 512.061 264.559 C 511.106 264.424 510.139 264.41 509.181 264.518 C 504.18 265.082 500.111 268.78 499.096 273.684 L 494.127 297.674 L 513.562 297.674 L 517.193 296.196 L 521.713 278.937 C 523.068 273.682 520.589 268.193 515.74 265.712 Z" fill="#3f3d56" style=""/>
  <path d="M 510.549 235.055 C 516.878 234.55 522.132 228.259 521.474 221.976 C 521.32 227.337 525.23 231.961 530.564 232.729 C 533.467 233.047 536.65 232.174 539.177 233.631 C 541.975 235.245 542.871 239.164 545.787 240.558 C 548.604 241.905 552.182 240.068 553.573 237.284 C 554.965 234.499 554.624 231.154 553.701 228.183 C 547.951 209.661 524.446 203.902 510.71 217.649 C 508.049 220.312 505.936 223.707 505.594 227.447 C 505.251 231.187 506.995 235.245 510.37 236.925 Z" fill="#2f2e41" style=""/>
  <path d="M 721.941 270.883 L 614.238 270.883 C 609.214 270.883 606.073 265.471 608.585 261.141 C 609.751 259.132 611.906 257.894 614.238 257.894 L 721.941 257.894 C 726.966 257.894 730.106 263.306 727.594 267.636 C 726.428 269.645 724.273 270.883 721.941 270.883 Z" fill="#e6e6e6" style=""/>
  <path d="M 672.985 243.281 L 614.238 243.281 C 609.214 243.281 606.073 237.868 608.585 233.538 C 609.751 231.529 611.906 230.291 614.238 230.291 L 672.985 230.291 C 678.01 230.291 681.151 235.703 678.638 240.033 C 677.472 242.043 675.317 243.281 672.985 243.281 Z" fill="#6c63ff" style=""/>
  <path d="M 704.507 290.712 C 687.939 290.742 677.617 308.606 685.927 322.868 C 689.77 329.462 696.846 333.527 704.507 333.541 L 704.507 333.541 C 721.075 333.51 731.397 315.646 723.087 301.385 C 719.244 294.79 712.168 290.726 704.507 290.712 Z" fill="#6c63ff" style=""/>
  <path id="f276b720-7c73-4755-84a7-b208d54eb1fc" data-name="Path 395" d="M 702.465 321.02 C 701.898 321.021 701.347 320.838 700.894 320.5 L 700.865 320.479 L 694.947 315.974 C 693.341 314.746 693.674 312.25 695.546 311.481 C 696.412 311.125 697.403 311.254 698.147 311.821 L 701.981 314.746 L 711.04 302.986 C 711.924 301.84 713.574 301.623 714.726 302.502 L 714.727 302.502 L 714.671 302.58 L 714.729 302.502 C 715.88 303.382 716.097 305.024 715.215 306.171 L 704.559 319.996 C 704.06 320.642 703.286 321.019 702.467 321.017 Z" fill="#fff" style=""/>
  <path d="M 22.891 342.621 C 22.891 342.621 -2.458 370.385 -6.079 434.361 C -9.701 498.337 -10.908 505.58 -10.908 505.58 L 79.625 505.58 L 96.524 462.124 L 115.838 505.58 L 201.542 505.58 C 201.542 505.58 211.199 372.799 201.542 369.177 C 191.885 365.556 22.891 342.621 22.891 342.621 Z" fill="#2f2e41"/>
  <circle cx="144.205" cy="-27.356" r="43.456" fill="#ffb8b8"/>
  <path d="M 104.974 -24.338 L 96.524 52.916 L 155.672 60.159 C 155.672 60.159 158.087 -7.439 159.294 -9.853 C 160.501 -12.267 104.974 -24.338 104.974 -24.338 Z" fill="#ffb8b8"/>
  <path d="M 272.761 139.828 L 298.111 189.319 C 298.111 189.319 331.909 238.81 340.359 279.852 C 348.809 320.893 357.259 340.207 357.259 340.207 C 357.259 340.207 400.714 402.976 376.572 413.84 C 352.43 424.704 331.909 343.828 331.909 343.828 L 265.519 223.118 L 226.891 160.349 Z" fill="#ffb8b8"/>
  <path d="M 32.548 151.899 L 24.098 188.112 L -55.571 293.13 C -55.571 293.13 -119.547 341.414 -92.991 352.278 C -66.435 363.142 -33.843 308.822 -33.843 308.822 L 65.14 221.911 L 60.311 151.899 Z" fill="#ffb8b8"/>
  <path d="M 94.11 37.224 C 94.11 37.224 129.957 52.253 156.697 33.875 C 156.697 33.875 222.063 44.467 225.684 48.088 C 229.306 51.709 222.063 160.349 222.063 160.349 L 207.578 221.911 C 207.578 221.911 228.099 316.065 197.921 340.207 L 203.957 372.799 C 203.957 372.799 69.968 382.456 16.856 349.864 L 26.512 317.272 L 51.862 214.668 L 36.169 72.23 C 36.169 72.23 48.24 39.638 94.11 37.224 Z" fill="#d0cde1"/>
  <path d="M 194.903 53.52 L 226.288 48.692 C 226.288 48.692 241.98 51.106 256.466 81.283 C 270.951 111.461 286.643 151.295 286.643 151.295 L 232.323 175.437 L 187.661 105.425 Z" fill="#d0cde1"/>
  <path d="M 43.412 66.195 L 36.169 72.23 C 36.169 72.23 26.512 107.236 26.512 131.378 L 26.512 163.97 L 69.968 168.798 Z" fill="#d0cde1"/>
  <path d="M 100.762 -15.563 C 100.762 -15.563 94.855 -21.941 95.452 -29.927 C 95.846 -34.469 95.556 -39.045 94.59 -43.501 C 94.59 -43.501 96.439 -56.571 99.169 -64.147 C 101.899 -71.723 99.598 -74.36 111.332 -78.496 C 123.067 -82.632 115.596 -97.589 150.193 -85.667 C 152.884 -82.95 156.945 -82.119 160.487 -83.561 C 166.874 -85.9 170.724 -77.125 170.724 -77.125 C 170.724 -77.125 174.708 -80.394 176.943 -76.996 C 179.179 -73.597 189.991 -81.343 193.956 -56.619 C 197.921 -31.896 184.31 -9.848 184.31 -9.848 C 184.31 -9.848 182.4 -49.412 159.931 -50.129 C 137.463 -50.846 112.053 -59.357 108.902 -42.697 C 105.75 -26.037 100.762 -15.563 100.762 -15.563 Z" fill="#2f2e41"/>
  <rect x="-89.973" y="261.142" width="453.871" height="162.959" fill="#3f3d56"/>
  <path d="M 71.568 393.041 C 71.518 393.05 71.468 393.06 71.418 393.069 C 70.227 393.287 69.027 393.478 67.807 393.609 C 67.397 393.657 66.974 393.694 66.564 393.73 C 66.142 393.766 65.731 393.802 65.309 393.826 C 64.621 393.875 63.92 393.899 63.22 393.911 C 62.919 393.923 62.605 393.923 62.303 393.923 L 62.122 393.923 C 61.748 393.923 61.374 393.923 60.999 393.911 C 60.673 393.899 60.347 393.887 60.034 393.875 C 59.853 393.875 59.671 393.863 59.503 393.851 C 20.531 391.748 -1.55 348.246 19.756 315.547 C 34.48 292.951 64.317 285.837 87.652 299.359 C 53.943 318.888 53.943 367.561 87.652 387.091 C 82.669 389.977 77.23 391.99 71.568 393.041 Z" fill="#6c63ff"/>
  <path d="M 147.826 382.902 C 149.763 384.45 151.812 385.85 153.958 387.091 C 146.26 391.566 137.514 393.923 128.609 393.923 L 127.957 393.923 C 88.931 393.475 65.025 350.947 84.926 317.374 C 99.104 293.456 129.901 285.419 153.958 299.359 C 122.959 317.211 119.766 360.715 147.826 382.902 Z" fill="#6c63ff"/>
  <path d="M 245.602 343.225 C 245.602 382.252 203.353 406.645 169.554 387.131 C 135.755 367.617 135.755 318.832 169.554 299.319 C 177.261 294.869 186.004 292.526 194.903 292.526 C 222.904 292.524 245.604 315.224 245.602 343.225 Z" fill="#6c63ff"/>
  <path d="M 215.424 383.059 C 215.426 385.354 215.195 387.643 214.736 389.891 C 202.061 395.267 187.746 395.267 175.071 389.891 C 174.611 387.643 174.381 385.354 174.382 383.059 C 174.382 371.133 180.454 361.054 188.819 357.686 C 177.684 353.003 175.795 338.021 185.418 330.72 C 195.042 323.418 208.961 329.272 210.472 341.257 C 211.353 348.241 207.476 354.957 200.987 357.686 C 209.352 361.054 215.424 371.133 215.424 383.059 Z" fill="#fff"/>
  <path d="M 147.826 382.902 L 147.826 383.059 C 147.657 385.904 147.253 388.73 146.619 391.509 C 140.716 394.02 134.753 393.839 127.957 393.923 L 127.305 393.923 C 120.49 393.931 113.744 392.56 107.473 389.891 C 107.424 389.684 107.388 389.475 107.364 389.264 C 106.973 387.219 106.779 385.141 106.785 383.059 C 106.785 371.133 112.856 361.054 121.222 357.686 C 110.088 353.004 108.197 338.025 117.818 330.724 C 120.548 328.653 123.879 327.532 127.305 327.532 C 128.534 327.529 129.758 327.675 130.951 327.967 C 124.636 348.006 131.35 369.864 147.826 382.902 Z" fill="#fff"/>
  <path d="M 82.618 383.759 C 82.592 385.82 82.369 387.873 81.955 389.891 C 77.444 391.81 72.679 393.063 67.807 393.609 C 67.397 393.657 66.974 393.694 66.564 393.73 C 66.142 393.766 65.731 393.802 65.309 393.826 C 64.621 393.875 63.92 393.899 63.22 393.911 C 63.075 393.923 62.919 393.923 62.774 393.923 L 62.122 393.923 C 61.748 393.923 61.374 393.923 60.999 393.911 C 60.673 393.899 60.347 393.887 60.034 393.875 C 59.853 393.875 59.671 393.863 59.503 393.851 C 53.576 393.557 47.748 392.217 42.289 389.891 C 42.279 389.864 42.275 389.835 42.277 389.807 C 42.232 389.628 42.2 389.447 42.181 389.264 C 41.789 387.219 41.595 385.141 41.601 383.059 C 41.601 371.133 47.673 361.054 56.038 357.686 C 44.904 353.004 43.013 338.025 52.635 330.724 C 55.364 328.653 58.696 327.532 62.122 327.532 C 62.992 327.531 63.86 327.604 64.717 327.75 C 58.126 348.327 65.315 370.819 82.619 383.759 Z" fill="#fff"/>
</svg>